<svg xmlns="http://www.w3.org/2000/svg" width="1280" height="1280"><rect width="1280" height="1280" x="0" y="0" fill="#ffffff" id="backgorund"/><g transform="translate(640,640)" id="viz"><g id="links"><path d="M0,0C-32.38406955517499,110.34614646214696,68.39331532814158,-92.45190327097325,136.78663065628317,-184.9038065419465" fill="none" stroke="#ccc"/><path d="M0,0C-32.38406955517499,110.34614646214696,112.06204308092157,-25.82825004776127,224.12408616184314,-51.65650009552254" fill="none" stroke="#ccc"/><path d="M0,0C-32.38406955517499,110.34614646214696,114.8498153986571,5.875364064837818,229.6996307973142,11.750728129675636" fill="none" stroke="#ccc"/><path d="M0,0C-32.38406955517499,110.34614646214696,63.1676875531741,96.09809180823818,126.3353751063482,192.19618361647636" fill="none" stroke="#ccc"/><path d="M0,0C-32.38406955517499,110.34614646214696,-46.5335788241556,105.1647566526738,-93.0671576483112,210.3295133053476" fill="none" stroke="#ccc"/><path d="M0,0C-32.38406955517499,110.34614646214696,-91.38816772681916,69.80832901262404,-182.77633545363832,139.61665802524809" fill="none" stroke="#ccc"/><path d="M0,0C-32.38406955517499,110.34614646214696,-108.32658090332596,38.605075699902144,-216.65316180665192,77.21015139980429" fill="none" stroke="#ccc"/><path d="M0,0C-32.38406955517499,110.34614646214696,-113.75487786385595,-16.876841001183077,-227.5097557277119,-33.753682002366155" fill="none" stroke="#ccc"/><path d="M0,0C-32.38406955517499,110.34614646214696,-92.65711662948976,-68.11504046764658,-185.31423325897953,-136.23008093529316" fill="none" stroke="#ccc"/><path d="M0,0C-32.38406955517499,110.34614646214696,-83.2092840296559,-79.38019306648259,-166.4185680593118,-158.76038613296518" fill="none" stroke="#ccc"/><path d="M0,0C-32.38406955517499,110.34614646214696,-72.4717833429698,-89.2907644669349,-144.9435666859396,-178.5815289338698" fill="none" stroke="#ccc"/><path d="M0,0C-32.38406955517499,110.34614646214696,-60.632249047537364,-97.71760524817114,-121.26449809507473,-195.43521049634228" fill="none" stroke="#ccc"/><path d="M0,0C-32.38406955517499,110.34614646214696,-47.954934309080556,-104.52427600998617,-95.90986861816111,-209.04855201997233" fill="none" stroke="#ccc"/><path d="M0,0C-32.38406955517499,110.34614646214696,-28.09858712445009,-111.51443584401837,-56.19717424890018,-223.02887168803673" fill="none" stroke="#ccc"/><path d="M0,0C-32.38406955517499,110.34614646214696,-7.584406576284322,-114.7496264781965,-15.168813152568644,-229.499252956393" fill="none" stroke="#ccc"/><path d="M136.78663065628317,-184.9038065419465C205.17994598442476,-277.3557098129197,22.753219728852923,-344.24887943458947,30.33762630513723,-458.998505912786" fill="none" stroke="#ccc"/><path d="M136.78663065628317,-184.9038065419465C205.17994598442476,-277.3557098129197,69.55711786034261,-337.915384904213,92.74282381379017,-450.55384653895067" fill="none" stroke="#ccc"/><path d="M136.78663065628317,-184.9038065419465C205.17994598442476,-277.3557098129197,112.76246986289785,-326.0515686059784,150.34995981719712,-434.73542480797124" fill="none" stroke="#ccc"/><path d="M136.78663065628317,-184.9038065419465C205.17994598442476,-277.3557098129197,153.73415167686858,-308.85402799412145,204.97886890249146,-411.8053706588286" fill="none" stroke="#ccc"/><path d="M136.78663065628317,-184.9038065419465C205.17994598442476,-277.3557098129197,191.88286074793973,-286.71583100900926,255.8438143305863,-382.28777467867906" fill="none" stroke="#ccc"/><path d="M136.78663065628317,-184.9038065419465C205.17994598442476,-277.3557098129197,226.6523903320973,-260.1032371131636,302.2031871094631,-346.80431615088474" fill="none" stroke="#ccc"/><path d="M136.78663065628317,-184.9038065419465C205.17994598442476,-277.3557098129197,257.54238432993037,-229.5580978176427,343.3898457732405,-306.07746375685696" fill="none" stroke="#ccc"/><path d="M136.78663065628317,-184.9038065419465C205.17994598442476,-277.3557098129197,283.8705783541265,-196.06757698531834,378.49410447216866,-261.4234359804245" fill="none" stroke="#ccc"/><path d="M136.78663065628317,-184.9038065419465C205.17994598442476,-277.3557098129197,305.450270318961,-160.3905619482445,407.267027091948,-213.85408259765936" fill="none" stroke="#ccc"/><path d="M136.78663065628317,-184.9038065419465C205.17994598442476,-277.3557098129197,322.5244956408337,-122.48652869448878,430.03266085444494,-163.3153715926517" fill="none" stroke="#ccc"/><path d="M224.12408616184314,-51.65650009552254C336.1861292427647,-77.4847501432838,336.1861292427647,-77.4847501432838,448.2481723236863,-103.31300019104508" fill="none" stroke="#ccc"/><path d="M229.6996307973142,11.750728129675636C344.5494461959713,17.626092194513454,343.89939489279084,-27.535544163358935,458.5325265237212,-36.714058884478575" fill="none" stroke="#ccc"/><path d="M229.6996307973142,11.750728129675636C344.5494461959713,17.626092194513454,344.4618368959794,19.26247445806713,459.2824491946392,25.683299277422837" fill="none" stroke="#ccc"/><path d="M229.6996307973142,11.750728129675636C344.5494461959713,17.626092194513454,339.2941878578352,62.48563103539916,452.39225047711363,83.31417471386554" fill="none" stroke="#ccc"/><path d="M126.3353751063482,192.19618361647636C189.5030626595223,288.29427542471456,328.72304682648854,104.71942744835002,438.29739576865137,139.62590326446667" fill="none" stroke="#ccc"/><path d="M126.3353751063482,192.19618361647636C189.5030626595223,288.29427542471456,312.5640522101203,146.0435320922814,416.7520696134937,194.7247094563752" fill="none" stroke="#ccc"/><path d="M126.3353751063482,192.19618361647636C189.5030626595223,288.29427542471456,291.6220719806257,184.34089924302407,388.82942930750096,245.78786565736544" fill="none" stroke="#ccc"/><path d="M126.3353751063482,192.19618361647636C189.5030626595223,288.29427542471456,266.16484871595816,219.50233098537043,354.88646495461086,292.6697746471606" fill="none" stroke="#ccc"/><path d="M126.3353751063482,192.19618361647636C189.5030626595223,288.29427542471456,236.73205398368577,250.964010600455,315.64273864491435,334.6186808006067" fill="none" stroke="#ccc"/><path d="M126.3353751063482,192.19618361647636C189.5030626595223,288.29427542471456,203.78684824458907,278.3808910154158,271.7157976594521,371.17452135388777" fill="none" stroke="#ccc"/><path d="M126.3353751063482,192.19618361647636C189.5030626595223,288.29427542471456,167.89703505152428,301.3894251975461,223.8627134020324,401.8525669300614" fill="none" stroke="#ccc"/><path d="M126.3353751063482,192.19618361647636C189.5030626595223,288.29427542471456,129.75868759419538,319.6680825384855,173.0115834589272,426.2241100513141" fill="none" stroke="#ccc"/><path d="M126.3353751063482,192.19618361647636C189.5030626595223,288.29427542471456,89.91913984683777,333.07588968462557,119.89218646245035,444.1011862461674" fill="none" stroke="#ccc"/><path d="M126.3353751063482,192.19618361647636C189.5030626595223,288.29427542471456,48.83930473438341,341.52558075942426,65.11907297917789,455.3674410125657" fill="none" stroke="#ccc"/><path d="M126.3353751063482,192.19618361647636C189.5030626595223,288.29427542471456,7.243313549505012,344.9239545303045,9.657751399340016,459.898606040406" fill="none" stroke="#ccc"/><path d="M126.3353751063482,192.19618361647636C189.5030626595223,288.29427542471456,-34.23015889171913,343.2976787312254,-45.6402118556255,457.73023830830056" fill="none" stroke="#ccc"/><path d="M-93.0671576483112,210.3295133053476C-139.6007364724668,315.4942699580214,-77.15083384922956,336.2629162372333,-102.86777846563942,448.3505549829777" fill="none" stroke="#ccc"/><path d="M-93.0671576483112,210.3295133053476C-139.6007364724668,315.4942699580214,-120.61171351519869,323.2302810117388,-160.8156180202649,430.9737080156517" fill="none" stroke="#ccc"/><path d="M-93.0671576483112,210.3295133053476C-139.6007364724668,315.4942699580214,-160.7010143758343,305.2870517702608,-214.26801916777904,407.04940236034776" fill="none" stroke="#ccc"/><path d="M-93.0671576483112,210.3295133053476C-139.6007364724668,315.4942699580214,-196.97055978522377,283.24476796208535,-262.62741304696505,377.65969061611383" fill="none" stroke="#ccc"/><path d="M-182.77633545363832,139.61665802524809C-274.1645031804575,209.42498703787214,-230.730388863855,256.4926658887818,-307.64051848514003,341.9902211850424" fill="none" stroke="#ccc"/><path d="M-182.77633545363832,139.61665802524809C-274.1645031804575,209.42498703787214,-261.33760415902873,225.22801036376183,-348.450138878705,300.3040138183491" fill="none" stroke="#ccc"/><path d="M-182.77633545363832,139.61665802524809C-274.1645031804575,209.42498703787214,-287.23604933364123,191.1032494836287,-382.9813991115216,254.80433264483827" fill="none" stroke="#ccc"/><path d="M-182.77633545363832,139.61665802524809C-274.1645031804575,209.42498703787214,-308.1502472240358,155.14001784119276,-410.8669962987144,206.85335712159036" fill="none" stroke="#ccc"/><path d="M-216.65316180665192,77.21015139980429C-324.97974270997787,115.81522709970645,-324.97974270997787,115.81522709970645,-433.30632361330385,154.42030279960858" fill="none" stroke="#ccc"/><path d="M-227.5097557277119,-33.753682002366155C-341.2646335915679,-50.630523003549236,-337.0075800866099,73.83014942533457,-449.34344011547984,98.44019923377942" fill="none" stroke="#ccc"/><path d="M-227.5097557277119,-33.753682002366155C-341.2646335915679,-50.630523003549236,-343.53125502107315,31.80057898287998,-458.04167336143087,42.40077197717331" fill="none" stroke="#ccc"/><path d="M-227.5097557277119,-33.753682002366155C-341.2646335915679,-50.630523003549236,-344.8523645800327,-10.091909807375893,-459.80315277337695,-13.455879743167857" fill="none" stroke="#ccc"/><path d="M-227.5097557277119,-33.753682002366155C-341.2646335915679,-50.630523003549236,-341.11930518114934,-51.60057783329456,-454.8257402415325,-68.80077044439274" fill="none" stroke="#ccc"/><path d="M-227.5097557277119,-33.753682002366155C-341.2646335915679,-50.630523003549236,-332.4446419461461,-92.22559320112157,-443.2595225948614,-122.96745760149543" fill="none" stroke="#ccc"/><path d="M-227.5097557277119,-33.753682002366155C-341.2646335915679,-50.630523003549236,-319.0094032303782,-131.36970979110043,-425.34587097383763,-175.1596130548006" fill="none" stroke="#ccc"/><path d="M-227.5097557277119,-33.753682002366155C-341.2646335915679,-50.630523003549236,-301.05598343475134,-168.4941982328612,-401.4079779130018,-224.6589309771483" fill="none" stroke="#ccc"/><path d="M-185.31423325897953,-136.23008093529316C-277.97134988846926,-204.34512140293975,-277.97134988846926,-204.34512140293975,-370.62846651795905,-272.4601618705863" fill="none" stroke="#ccc"/><path d="M-166.4185680593118,-158.76038613296518C-249.6278520889677,-238.14057919944776,-249.6278520889677,-238.14057919944776,-332.8371361186236,-317.52077226593036" fill="none" stroke="#ccc"/><path d="M-144.9435666859396,-178.5815289338698C-217.41535002890942,-267.8722934008047,-217.41535002890942,-267.8722934008047,-289.8871333718792,-357.1630578677396" fill="none" stroke="#ccc"/><path d="M-121.26449809507473,-195.43521049634228C-181.8967471426121,-293.1528157445134,-181.8967471426121,-293.1528157445134,-242.52899619014946,-390.87042099268456" fill="none" stroke="#ccc"/><path d="M-95.90986861816111,-209.04855201997233C-143.86480292724167,-313.5728280299585,-143.86480292724167,-313.5728280299585,-191.81973723632223,-418.09710403994467" fill="none" stroke="#ccc"/><path d="M-56.19717424890018,-223.02887168803673C-84.29576137335027,-334.54330753205505,-104.37645774871956,-328.8321077203833,-139.16861033162607,-438.4428102938444" fill="none" stroke="#ccc"/><path d="M-56.19717424890018,-223.02887168803673C-84.29576137335027,-334.54330753205505,-63.90638622852892,-339.02945860088636,-85.2085149713719,-452.0392781345151" fill="none" stroke="#ccc"/><path d="M-15.168813152568644,-229.499252956393C-22.753219728852965,-344.24887943458947,-22.753219728852965,-344.24887943458947,-30.337626305137288,-458.998505912786" fill="none" stroke="#ccc"/></g><g><circle transform="&#xA;&#9;        rotate(106.35575705541353)&#xA;&#9;        translate(0,0)&#xA;&#9;      " fill="#ccc" r="21.107014564776854"/><circle transform="&#xA;&#9;        rotate(-53.507006525131814)&#xA;&#9;        translate(230,0)&#xA;&#9;      " fill="#17becf" r="10.833943006744406"/><circle transform="&#xA;&#9;        rotate(-12.978974406141688)&#xA;&#9;        translate(230,0)&#xA;&#9;      " fill="#cccccc" r="10"/><circle transform="&#xA;&#9;        rotate(2.928523331789364)&#xA;&#9;        translate(230,0)&#xA;&#9;      " fill="#cccccc" r="7.843155703642669"/><circle transform="&#xA;&#9;        rotate(56.68207733743364)&#xA;&#9;        translate(230,0)&#xA;&#9;      " fill="#bcbd22" r="7.158475309431137"/><circle transform="&#xA;&#9;        rotate(113.86855812113436)&#xA;&#9;        translate(230,0)&#xA;&#9;      " fill="#ff7f0e" r="6.236614842869179"/><circle transform="&#xA;&#9;        rotate(142.62501479560086)&#xA;&#9;        translate(230,0)&#xA;&#9;      " fill="#8c564b" r="4.144981723752327"/><circle transform="&#xA;&#9;        rotate(160.3851142230968)&#xA;&#9;        translate(230,0)&#xA;&#9;      " fill="#7f7f7f" r="3.290043208814313"/><circle transform="&#xA;&#9;        rotate(188.43892864794464)&#xA;&#9;        translate(230,0)&#xA;&#9;      " fill="#2ca02c" r="3.131699930667475"/><circle transform="&#xA;&#9;        rotate(216.32072782245592)&#xA;&#9;        translate(230,0)&#xA;&#9;      " fill="#d62728" r="3.072739838616432"/><circle transform="&#xA;&#9;        rotate(223.6508954426369)&#xA;&#9;        translate(230,0)&#xA;&#9;      " fill="#cccccc" r="2.995495241404375"/><circle transform="&#xA;&#9;        rotate(230.93590098940882)&#xA;&#9;        translate(230,0)&#xA;&#9;      " fill="#e377c2" r="2.6229353190187057"/><circle transform="&#xA;&#9;        rotate(238.1810440560604)&#xA;&#9;        translate(230,0)&#xA;&#9;      " fill="#1f77b4" r="2.5984735290041905"/><circle transform="&#xA;&#9;        rotate(245.35470670858837)&#xA;&#9;        translate(230,0)&#xA;&#9;      " fill="#cccccc" r="1.911005797001077"/><circle transform="&#xA;&#9;        rotate(255.85743036855774)&#xA;&#9;        translate(230,0)&#xA;&#9;      " fill="#cccccc" r="1.525231520846174"/><circle transform="&#xA;&#9;        rotate(266.2185206359589)&#xA;&#9;        translate(230,0)&#xA;&#9;      " fill="#9467bd" r="0.7999156722500455"/><circle transform="&#xA;&#9;        rotate(-86.21852063595885)&#xA;&#9;        translate(460,0)&#xA;&#9;      " fill="#17becf" r="7.58686868046323"/><circle transform="&#xA;&#9;        rotate(-78.36859394470306)&#xA;&#9;        translate(460,0)&#xA;&#9;      " fill="#17becf" r="3.6580547493839317"/><circle transform="&#xA;&#9;        rotate(-70.9224426758578)&#xA;&#9;        translate(460,0)&#xA;&#9;      " fill="#17becf" r="3.565352479088339"/><circle transform="&#xA;&#9;        rotate(-63.537867858565846)&#xA;&#9;        translate(460,0)&#xA;&#9;      " fill="#17becf" r="3.044766560453129"/><circle transform="&#xA;&#9;        rotate(-56.207819210419025)&#xA;&#9;        translate(460,0)&#xA;&#9;      " fill="#17becf" r="3.022283583743255"/><circle transform="&#xA;&#9;        rotate(-48.931302645117896)&#xA;&#9;        translate(460,0)&#xA;&#9;      " fill="#17becf" r="2.511598550443386"/><circle transform="&#xA;&#9;        rotate(-41.711929017440205)&#xA;&#9;        translate(460,0)&#xA;&#9;      " fill="#17becf" r="2.45315223821748"/><circle transform="&#xA;&#9;        rotate(-34.63258734737339)&#xA;&#9;        translate(460,0)&#xA;&#9;      " fill="#17becf" r="1.116910426831508"/><circle transform="&#xA;&#9;        rotate(-27.703762033900524)&#xA;&#9;        translate(460,0)&#xA;&#9;      " fill="#17becf" r="0.9540417599196813"/><circle transform="&#xA;&#9;        rotate(-20.795492414304775)&#xA;&#9;        translate(460,0)&#xA;&#9;      " fill="#17becf" r="0.9121801451723206"/><circle transform="&#xA;&#9;        rotate(-12.978974406141688)&#xA;&#9;        translate(460,0)&#xA;&#9;      " fill="#cccccc" r="10"/><circle transform="&#xA;&#9;        rotate(-4.577826911606053)&#xA;&#9;        translate(460,0)&#xA;&#9;      " fill="#cccccc" r="6.734963853038379"/><circle transform="&#xA;&#9;        rotate(3.2006745240646524)&#xA;&#9;        translate(460,0)&#xA;&#9;      " fill="#cccccc" r="3.798579421949802"/><circle transform="&#xA;&#9;        rotate(10.43487357518481)&#xA;&#9;        translate(460,0)&#xA;&#9;      " fill="#cccccc" r="1.313829389604475"/><circle transform="&#xA;&#9;        rotate(17.670021974161656)&#xA;&#9;        translate(460,0)&#xA;&#9;      " fill="#bcbd22" r="3.808034722036422"/><circle transform="&#xA;&#9;        rotate(25.044028730850826)&#xA;&#9;        translate(460,0)&#xA;&#9;      " fill="#bcbd22" r="2.696828711115299"/><circle transform="&#xA;&#9;        rotate(32.29790532196009)&#xA;&#9;        translate(460,0)&#xA;&#9;      " fill="#bcbd22" r="2.6115641585992666"/><circle transform="&#xA;&#9;        rotate(39.511912777050014)&#xA;&#9;        translate(460,0)&#xA;&#9;      " fill="#bcbd22" r="2.299740707394421"/><circle transform="&#xA;&#9;        rotate(46.671532240441366)&#xA;&#9;        translate(460,0)&#xA;&#9;      " fill="#bcbd22" r="2.0698714808469463"/><circle transform="&#xA;&#9;        rotate(53.79425934826526)&#xA;&#9;        translate(460,0)&#xA;&#9;      " fill="#bcbd22" r="1.9323007955350753"/><circle transform="&#xA;&#9;        rotate(60.878837961298046)&#xA;&#9;        translate(460,0)&#xA;&#9;      " fill="#bcbd22" r="1.6899206929949064"/><circle transform="&#xA;&#9;        rotate(67.90693356023019)&#xA;&#9;        translate(460,0)&#xA;&#9;      " fill="#bcbd22" r="1.3697421460943056"/><circle transform="&#xA;&#9;        rotate(74.89224472038748)&#xA;&#9;        translate(460,0)&#xA;&#9;      " fill="#bcbd22" r="1.263796902021165"/><circle transform="&#xA;&#9;        rotate(81.86168787941071)&#xA;&#9;        translate(460,0)&#xA;&#9;      " fill="#bcbd22" r="1.2117002740480507"/><circle transform="&#xA;&#9;        rotate(88.79698031519703)&#xA;&#9;        translate(460,0)&#xA;&#9;      " fill="#bcbd22" r="0.9236630574051284"/><circle transform="&#xA;&#9;        rotate(95.69413270070555)&#xA;&#9;        translate(460,0)&#xA;&#9;      " fill="#bcbd22" r="0.8318335917281012"/><circle transform="&#xA;&#9;        rotate(102.92207197489864)&#xA;&#9;        translate(460,0)&#xA;&#9;      " fill="#ff7f0e" r="4.218229190493819"/><circle transform="&#xA;&#9;        rotate(110.46280050334977)&#xA;&#9;        translate(460,0)&#xA;&#9;      " fill="#ff7f0e" r="3.947147164073415"/><circle transform="&#xA;&#9;        rotate(117.7620116664842)&#xA;&#9;        translate(460,0)&#xA;&#9;      " fill="#ff7f0e" r="1.8127682742837257"/><circle transform="&#xA;&#9;        rotate(124.81504426737007)&#xA;&#9;        translate(460,0)&#xA;&#9;      " fill="#ff7f0e" r="1.4952617308216083"/><circle transform="&#xA;&#9;        rotate(131.9732622196619)&#xA;&#9;        translate(460,0)&#xA;&#9;      " fill="#8c564b" r="2.860391708867256"/><circle transform="&#xA;&#9;        rotate(139.24432284285731)&#xA;&#9;        translate(460,0)&#xA;&#9;      " fill="#8c564b" r="2.619150417596758"/><circle transform="&#xA;&#9;        rotate(146.36347131006053)&#xA;&#9;        translate(460,0)&#xA;&#9;      " fill="#8c564b" r="1.3473793693320615"/><circle transform="&#xA;&#9;        rotate(153.27676737153976)&#xA;&#9;        translate(460,0)&#xA;&#9;      " fill="#8c564b" r="0.5689048138180389"/><circle transform="&#xA;&#9;        rotate(160.3851142230968)&#xA;&#9;        translate(460,0)&#xA;&#9;      " fill="#7f7f7f" r="3.290043208814313"/><circle transform="&#xA;&#9;        rotate(167.64310847147988)&#xA;&#9;        translate(460,0)&#xA;&#9;      " fill="#2ca02c" r="2.0593606400717763"/><circle transform="&#xA;&#9;        rotate(174.71122032768938)&#xA;&#9;        translate(460,0)&#xA;&#9;      " fill="#2ca02c" r="1.3988554987670785"/><circle transform="&#xA;&#9;        rotate(181.67625024013228)&#xA;&#9;        translate(460,0)&#xA;&#9;      " fill="#2ca02c" r="1.0326866923315787"/><circle transform="&#xA;&#9;        rotate(188.60182817427568)&#xA;&#9;        translate(460,0)&#xA;&#9;      " fill="#2ca02c" r="1.005922296046218"/><circle transform="&#xA;&#9;        rotate(195.50488657007787)&#xA;&#9;        translate(460,0)&#xA;&#9;      " fill="#2ca02c" r="0.8083969429804907"/><circle transform="&#xA;&#9;        rotate(202.3821155416204)&#xA;&#9;        translate(460,0)&#xA;&#9;      " fill="#2ca02c" r="0.748666796163213"/><circle transform="&#xA;&#9;        rotate(209.23474882440934)&#xA;&#9;        translate(460,0)&#xA;&#9;      " fill="#2ca02c" r="0.5634291828932986"/><circle transform="&#xA;&#9;        rotate(216.32072782245592)&#xA;&#9;        translate(460,0)&#xA;&#9;      " fill="#d62728" r="3.072739838616432"/><circle transform="&#xA;&#9;        rotate(223.6508954426369)&#xA;&#9;        translate(460,0)&#xA;&#9;      " fill="#cccccc" r="2.995495241404375"/><circle transform="&#xA;&#9;        rotate(230.93590098940882)&#xA;&#9;        translate(460,0)&#xA;&#9;      " fill="#e377c2" r="2.6229353190187057"/><circle transform="&#xA;&#9;        rotate(238.1810440560604)&#xA;&#9;        translate(460,0)&#xA;&#9;      " fill="#1f77b4" r="2.5984735290041905"/><circle transform="&#xA;&#9;        rotate(245.35470670858837)&#xA;&#9;        translate(460,0)&#xA;&#9;      " fill="#cccccc" r="1.911005797001077"/><circle transform="&#xA;&#9;        rotate(252.38974704862477)&#xA;&#9;        translate(460,0)&#xA;&#9;      " fill="#cccccc" r="1.2178251670280869"/><circle transform="&#xA;&#9;        rotate(259.32511368849083)&#xA;&#9;        translate(460,0)&#xA;&#9;      " fill="#cccccc" r="0.9182772210698388"/><circle transform="&#xA;&#9;        rotate(266.2185206359589)&#xA;&#9;        translate(460,0)&#xA;&#9;      " fill="#9467bd" r="0.7999156722500455"/></g><g id="labels"><g transform="&#xA;&#9;        rotate(106.35575705541353)&#xA;&#9;        translate(0,0)&#xA;&#9;        rotate(180)&#xA;&#9;      "><text x="0" y="0" text-anchor="middle" dominant-baseline="text-before-edge" transform="translate(0,0)"><tspan x="6" y="0" dy="0" text-anchor="start" style="font-family: Arial, sans-serif; font-size: 10px; fill: black; font-weight: normal;"/></text></g><g transform="&#xA;&#9;        rotate(-53.507006525131814)&#xA;&#9;        translate(230,0)&#xA;&#9;        rotate(0)&#xA;&#9;      "><text x="0" y="0" text-anchor="middle" dominant-baseline="text-before-edge" transform="translate(0,-6.5)"><tspan x="-6" y="0" dy="0" text-anchor="end" style="font-family: Arial, sans-serif; font-size: 10px; fill: black; font-weight: normal;">Progressive Rock</tspan></text></g><g transform="&#xA;&#9;        rotate(-12.978974406141688)&#xA;&#9;        translate(230,0)&#xA;&#9;        rotate(0)&#xA;&#9;      "><text x="0" y="0" text-anchor="middle" dominant-baseline="text-before-edge" transform="translate(0,-6.5)"><tspan x="-6" y="0" dy="0" text-anchor="end" style="font-family: Arial, sans-serif; font-size: 10px; fill: black; font-weight: normal;">Symphonic Rock</tspan></text></g><g transform="&#xA;&#9;        rotate(2.928523331789364)&#xA;&#9;        translate(230,0)&#xA;&#9;        rotate(0)&#xA;&#9;      "><text x="0" y="0" text-anchor="middle" dominant-baseline="text-before-edge" transform="translate(0,-6.5)"><tspan x="-6" y="0" dy="0" text-anchor="end" style="font-family: Arial, sans-serif; font-size: 10px; fill: black; font-weight: normal;">Psychedelic Rock</tspan></text></g><g transform="&#xA;&#9;        rotate(56.68207733743364)&#xA;&#9;        translate(230,0)&#xA;&#9;        rotate(0)&#xA;&#9;      "><text x="0" y="0" text-anchor="middle" dominant-baseline="text-before-edge" transform="translate(0,-6.5)"><tspan x="-6" y="0" dy="0" text-anchor="end" style="font-family: Arial, sans-serif; font-size: 10px; fill: black; font-weight: normal;">Progressive Metal</tspan></text></g><g transform="&#xA;&#9;        rotate(113.86855812113436)&#xA;&#9;        translate(230,0)&#xA;&#9;        rotate(180)&#xA;&#9;      "><text x="0" y="0" text-anchor="middle" dominant-baseline="text-before-edge" transform="translate(0,-6.5)"><tspan x="6" y="0" dy="0" text-anchor="start" style="font-family: Arial, sans-serif; font-size: 10px; fill: black; font-weight: normal;">Art Rock</tspan></text></g><g transform="&#xA;&#9;        rotate(142.62501479560086)&#xA;&#9;        translate(230,0)&#xA;&#9;        rotate(180)&#xA;&#9;      "><text x="0" y="0" text-anchor="middle" dominant-baseline="text-before-edge" transform="translate(0,-6.5)"><tspan x="6" y="0" dy="0" text-anchor="start" style="font-family: Arial, sans-serif; font-size: 10px; fill: black; font-weight: normal;">Jazz</tspan></text></g><g transform="&#xA;&#9;        rotate(160.3851142230968)&#xA;&#9;        translate(230,0)&#xA;&#9;        rotate(180)&#xA;&#9;      "><text x="0" y="0" text-anchor="middle" dominant-baseline="text-before-edge" transform="translate(0,-6.5)"><tspan x="6" y="0" dy="0" text-anchor="start" style="font-family: Arial, sans-serif; font-size: 10px; fill: black; font-weight: normal;">Progressive Blues</tspan></text></g><g transform="&#xA;&#9;        rotate(188.43892864794464)&#xA;&#9;        translate(230,0)&#xA;&#9;        rotate(180)&#xA;&#9;      "><text x="0" y="0" text-anchor="middle" dominant-baseline="text-before-edge" transform="translate(0,-6.5)"><tspan x="6" y="0" dy="0" text-anchor="start" style="font-family: Arial, sans-serif; font-size: 10px; fill: black; font-weight: normal;">Classical Music</tspan></text></g><g transform="&#xA;&#9;        rotate(216.32072782245592)&#xA;&#9;        translate(230,0)&#xA;&#9;        rotate(180)&#xA;&#9;      "><text x="0" y="0" text-anchor="middle" dominant-baseline="text-before-edge" transform="translate(0,-6.5)"><tspan x="6" y="0" dy="0" text-anchor="start" style="font-family: Arial, sans-serif; font-size: 10px; fill: black; font-weight: normal;">ElectroJazz</tspan></text></g><g transform="&#xA;&#9;        rotate(223.6508954426369)&#xA;&#9;        translate(230,0)&#xA;&#9;        rotate(180)&#xA;&#9;      "><text x="0" y="0" text-anchor="middle" dominant-baseline="text-before-edge" transform="translate(0,-6.5)"><tspan x="6" y="0" dy="0" text-anchor="start" style="font-family: Arial, sans-serif; font-size: 10px; fill: black; font-weight: normal;">Space Rock</tspan></text></g><g transform="&#xA;&#9;        rotate(230.93590098940882)&#xA;&#9;        translate(230,0)&#xA;&#9;        rotate(180)&#xA;&#9;      "><text x="0" y="0" text-anchor="middle" dominant-baseline="text-before-edge" transform="translate(0,-6.5)"><tspan x="6" y="0" dy="0" text-anchor="start" style="font-family: Arial, sans-serif; font-size: 10px; fill: black; font-weight: normal;">Jazz Fusion</tspan></text></g><g transform="&#xA;&#9;        rotate(238.1810440560604)&#xA;&#9;        translate(230,0)&#xA;&#9;        rotate(180)&#xA;&#9;      "><text x="0" y="0" text-anchor="middle" dominant-baseline="text-before-edge" transform="translate(0,-6.5)"><tspan x="6" y="0" dy="0" text-anchor="start" style="font-family: Arial, sans-serif; font-size: 10px; fill: black; font-weight: normal;">Alternative Rock</tspan></text></g><g transform="&#xA;&#9;        rotate(245.35470670858837)&#xA;&#9;        translate(230,0)&#xA;&#9;        rotate(180)&#xA;&#9;      "><text x="0" y="0" text-anchor="middle" dominant-baseline="text-before-edge" transform="translate(0,-6.5)"><tspan x="6" y="0" dy="0" text-anchor="start" style="font-family: Arial, sans-serif; font-size: 10px; fill: black; font-weight: normal;">Rap Metal</tspan></text></g><g transform="&#xA;&#9;        rotate(255.85743036855774)&#xA;&#9;        translate(230,0)&#xA;&#9;        rotate(180)&#xA;&#9;      "><text x="0" y="0" text-anchor="middle" dominant-baseline="text-before-edge" transform="translate(0,-6.5)"><tspan x="6" y="0" dy="0" text-anchor="start" style="font-family: Arial, sans-serif; font-size: 10px; fill: black; font-weight: normal;">Rock</tspan></text></g><g transform="&#xA;&#9;        rotate(266.2185206359589)&#xA;&#9;        translate(230,0)&#xA;&#9;        rotate(180)&#xA;&#9;      "><text x="0" y="0" text-anchor="middle" dominant-baseline="text-before-edge" transform="translate(0,-6.5)"><tspan x="6" y="0" dy="0" text-anchor="start" style="font-family: Arial, sans-serif; font-size: 10px; fill: black; font-weight: normal;">Indie Folk</tspan></text></g><g transform="&#xA;&#9;        rotate(-86.21852063595885)&#xA;&#9;        translate(460,0)&#xA;&#9;        rotate(0)&#xA;&#9;      "><text x="0" y="0" text-anchor="middle" dominant-baseline="text-before-edge" transform="translate(0,-6.5)"><tspan x="12.58686868046323" y="0" dy="0" text-anchor="start" style="font-family: Arial, sans-serif; font-size: 10px; fill: black; font-weight: bold;">Thank You Scientist</tspan></text></g><g transform="&#xA;&#9;        rotate(-78.36859394470306)&#xA;&#9;        translate(460,0)&#xA;&#9;        rotate(0)&#xA;&#9;      "><text x="0" y="0" text-anchor="middle" dominant-baseline="text-before-edge" transform="translate(0,-6.5)"><tspan x="8.658054749383933" y="0" dy="0" text-anchor="start" style="font-family: Arial, sans-serif; font-size: 10px; fill: black; font-weight: bold;">Closure In Moscow</tspan></text></g><g transform="&#xA;&#9;        rotate(-70.9224426758578)&#xA;&#9;        translate(460,0)&#xA;&#9;        rotate(0)&#xA;&#9;      "><text x="0" y="0" text-anchor="middle" dominant-baseline="text-before-edge" transform="translate(0,-6.5)"><tspan x="8.56535247908834" y="0" dy="0" text-anchor="start" style="font-family: Arial, sans-serif; font-size: 10px; fill: black; font-weight: bold;">Gentle Giant</tspan></text></g><g transform="&#xA;&#9;        rotate(-63.537867858565846)&#xA;&#9;        translate(460,0)&#xA;&#9;        rotate(0)&#xA;&#9;      "><text x="0" y="0" text-anchor="middle" dominant-baseline="text-before-edge" transform="translate(0,-6.5)"><tspan x="8.044766560453128" y="0" dy="0" text-anchor="start" style="font-family: Arial, sans-serif; font-size: 10px; fill: black; font-weight: bold;">Steven Wilson</tspan></text></g><g transform="&#xA;&#9;        rotate(-56.207819210419025)&#xA;&#9;        translate(460,0)&#xA;&#9;        rotate(0)&#xA;&#9;      "><text x="0" y="0" text-anchor="middle" dominant-baseline="text-before-edge" transform="translate(0,-6.5)"><tspan x="8.022283583743254" y="0" dy="0" text-anchor="start" style="font-family: Arial, sans-serif; font-size: 10px; fill: black; font-weight: bold;">King Crimson</tspan></text></g><g transform="&#xA;&#9;        rotate(-48.931302645117896)&#xA;&#9;        translate(460,0)&#xA;&#9;        rotate(0)&#xA;&#9;      "><text x="0" y="0" text-anchor="middle" dominant-baseline="text-before-edge" transform="translate(0,-6.5)"><tspan x="7.511598550443386" y="0" dy="0" text-anchor="start" style="font-family: Arial, sans-serif; font-size: 10px; fill: black; font-weight: bold;">Porcupine Tree</tspan></text></g><g transform="&#xA;&#9;        rotate(-41.711929017440205)&#xA;&#9;        translate(460,0)&#xA;&#9;        rotate(0)&#xA;&#9;      "><text x="0" y="0" text-anchor="middle" dominant-baseline="text-before-edge" transform="translate(0,-6.5)"><tspan x="7.453152238217481" y="0" dy="0" text-anchor="start" style="font-family: Arial, sans-serif; font-size: 10px; fill: black; font-weight: bold;">The Tea Club</tspan></text></g><g transform="&#xA;&#9;        rotate(-34.63258734737339)&#xA;&#9;        translate(460,0)&#xA;&#9;        rotate(0)&#xA;&#9;      "><text x="0" y="0" text-anchor="middle" dominant-baseline="text-before-edge" transform="translate(0,-6.5)"><tspan x="6.116910426831508" y="0" dy="0" text-anchor="start" style="font-family: Arial, sans-serif; font-size: 10px; fill: black; font-weight: bold;">Pink Floyd</tspan></text></g><g transform="&#xA;&#9;        rotate(-27.703762033900524)&#xA;&#9;        translate(460,0)&#xA;&#9;        rotate(0)&#xA;&#9;      "><text x="0" y="0" text-anchor="middle" dominant-baseline="text-before-edge" transform="translate(0,-6.5)"><tspan x="5.954041759919681" y="0" dy="0" text-anchor="start" style="font-family: Arial, sans-serif; font-size: 10px; fill: black; font-weight: bold;">Deep Purple</tspan></text></g><g transform="&#xA;&#9;        rotate(-20.795492414304775)&#xA;&#9;        translate(460,0)&#xA;&#9;        rotate(0)&#xA;&#9;      "><text x="0" y="0" text-anchor="middle" dominant-baseline="text-before-edge" transform="translate(0,-6.5)"><tspan x="5.912180145172321" y="0" dy="0" text-anchor="start" style="font-family: Arial, sans-serif; font-size: 10px; fill: black; font-weight: bold;">Circa Survive</tspan></text></g><g transform="&#xA;&#9;        rotate(-12.978974406141688)&#xA;&#9;        translate(460,0)&#xA;&#9;        rotate(0)&#xA;&#9;      "><text x="0" y="0" text-anchor="middle" dominant-baseline="text-before-edge" transform="translate(0,-6.5)"><tspan x="15" y="0" dy="0" text-anchor="start" style="font-family: Arial, sans-serif; font-size: 10px; fill: black; font-weight: bold;">The Dear Hunter</tspan></text></g><g transform="&#xA;&#9;        rotate(-4.577826911606053)&#xA;&#9;        translate(460,0)&#xA;&#9;        rotate(0)&#xA;&#9;      "><text x="0" y="0" text-anchor="middle" dominant-baseline="text-before-edge" transform="translate(0,-6.5)"><tspan x="11.73496385303838" y="0" dy="0" text-anchor="start" style="font-family: Arial, sans-serif; font-size: 10px; fill: black; font-weight: bold;">King Gizzard &amp; the Lizard Wizard</tspan></text></g><g transform="&#xA;&#9;        rotate(3.2006745240646524)&#xA;&#9;        translate(460,0)&#xA;&#9;        rotate(0)&#xA;&#9;      "><text x="0" y="0" text-anchor="middle" dominant-baseline="text-before-edge" transform="translate(0,-6.5)"><tspan x="8.798579421949801" y="0" dy="0" text-anchor="start" style="font-family: Arial, sans-serif; font-size: 10px; fill: black; font-weight: bold;">Psychedelic Porn Crumpets</tspan></text></g><g transform="&#xA;&#9;        rotate(10.43487357518481)&#xA;&#9;        translate(460,0)&#xA;&#9;        rotate(0)&#xA;&#9;      "><text x="0" y="0" text-anchor="middle" dominant-baseline="text-before-edge" transform="translate(0,-6.5)"><tspan x="6.313829389604475" y="0" dy="0" text-anchor="start" style="font-family: Arial, sans-serif; font-size: 10px; fill: black; font-weight: bold;">Harrison Fjord</tspan></text></g><g transform="&#xA;&#9;        rotate(17.670021974161656)&#xA;&#9;        translate(460,0)&#xA;&#9;        rotate(0)&#xA;&#9;      "><text x="0" y="0" text-anchor="middle" dominant-baseline="text-before-edge" transform="translate(0,-6.5)"><tspan x="8.808034722036421" y="0" dy="0" text-anchor="start" style="font-family: Arial, sans-serif; font-size: 10px; fill: black; font-weight: bold;">TOOL</tspan></text></g><g transform="&#xA;&#9;        rotate(25.044028730850826)&#xA;&#9;        translate(460,0)&#xA;&#9;        rotate(0)&#xA;&#9;      "><text x="0" y="0" text-anchor="middle" dominant-baseline="text-before-edge" transform="translate(0,-6.5)"><tspan x="7.696828711115299" y="0" dy="0" text-anchor="start" style="font-family: Arial, sans-serif; font-size: 10px; fill: black; font-weight: bold;">Riverside</tspan></text></g><g transform="&#xA;&#9;        rotate(32.29790532196009)&#xA;&#9;        translate(460,0)&#xA;&#9;        rotate(0)&#xA;&#9;      "><text x="0" y="0" text-anchor="middle" dominant-baseline="text-before-edge" transform="translate(0,-6.5)"><tspan x="7.611564158599267" y="0" dy="0" text-anchor="start" style="font-family: Arial, sans-serif; font-size: 10px; fill: black; font-weight: bold;">Lucid Planet</tspan></text></g><g transform="&#xA;&#9;        rotate(39.511912777050014)&#xA;&#9;        translate(460,0)&#xA;&#9;        rotate(0)&#xA;&#9;      "><text x="0" y="0" text-anchor="middle" dominant-baseline="text-before-edge" transform="translate(0,-6.5)"><tspan x="7.299740707394421" y="0" dy="0" text-anchor="start" style="font-family: Arial, sans-serif; font-size: 10px; fill: black; font-weight: bold;">Caligula's Horse</tspan></text></g><g transform="&#xA;&#9;        rotate(46.671532240441366)&#xA;&#9;        translate(460,0)&#xA;&#9;        rotate(0)&#xA;&#9;      "><text x="0" y="0" text-anchor="middle" dominant-baseline="text-before-edge" transform="translate(0,-6.5)"><tspan x="7.069871480846946" y="0" dy="0" text-anchor="start" style="font-family: Arial, sans-serif; font-size: 10px; fill: black; font-weight: bold;">Dream Theater</tspan></text></g><g transform="&#xA;&#9;        rotate(53.79425934826526)&#xA;&#9;        translate(460,0)&#xA;&#9;        rotate(0)&#xA;&#9;      "><text x="0" y="0" text-anchor="middle" dominant-baseline="text-before-edge" transform="translate(0,-6.5)"><tspan x="6.932300795535076" y="0" dy="0" text-anchor="start" style="font-family: Arial, sans-serif; font-size: 10px; fill: black; font-weight: bold;">Porcupine Tree</tspan></text></g><g transform="&#xA;&#9;        rotate(60.878837961298046)&#xA;&#9;        translate(460,0)&#xA;&#9;        rotate(0)&#xA;&#9;      "><text x="0" y="0" text-anchor="middle" dominant-baseline="text-before-edge" transform="translate(0,-6.5)"><tspan x="6.689920692994907" y="0" dy="0" text-anchor="start" style="font-family: Arial, sans-serif; font-size: 10px; fill: black; font-weight: bold;">Gojira</tspan></text></g><g transform="&#xA;&#9;        rotate(67.90693356023019)&#xA;&#9;        translate(460,0)&#xA;&#9;        rotate(0)&#xA;&#9;      "><text x="0" y="0" text-anchor="middle" dominant-baseline="text-before-edge" transform="translate(0,-6.5)"><tspan x="6.369742146094305" y="0" dy="0" text-anchor="start" style="font-family: Arial, sans-serif; font-size: 10px; fill: black; font-weight: bold;">Animals As Leaders</tspan></text></g><g transform="&#xA;&#9;        rotate(74.89224472038748)&#xA;&#9;        translate(460,0)&#xA;&#9;        rotate(0)&#xA;&#9;      "><text x="0" y="0" text-anchor="middle" dominant-baseline="text-before-edge" transform="translate(0,-6.5)"><tspan x="6.263796902021165" y="0" dy="0" text-anchor="start" style="font-family: Arial, sans-serif; font-size: 10px; fill: black; font-weight: bold;">King Gizzard &amp; the Lizard Wizard</tspan></text></g><g transform="&#xA;&#9;        rotate(81.86168787941071)&#xA;&#9;        translate(460,0)&#xA;&#9;        rotate(0)&#xA;&#9;      "><text x="0" y="0" text-anchor="middle" dominant-baseline="text-before-edge" transform="translate(0,-6.5)"><tspan x="6.2117002740480505" y="0" dy="0" text-anchor="start" style="font-family: Arial, sans-serif; font-size: 10px; fill: black; font-weight: bold;">Storm Corrosion</tspan></text></g><g transform="&#xA;&#9;        rotate(88.79698031519703)&#xA;&#9;        translate(460,0)&#xA;&#9;        rotate(0)&#xA;&#9;      "><text x="0" y="0" text-anchor="middle" dominant-baseline="text-before-edge" transform="translate(0,-6.5)"><tspan x="5.923663057405128" y="0" dy="0" text-anchor="start" style="font-family: Arial, sans-serif; font-size: 10px; fill: black; font-weight: bold;">lovigab</tspan></text></g><g transform="&#xA;&#9;        rotate(95.69413270070555)&#xA;&#9;        translate(460,0)&#xA;&#9;        rotate(180)&#xA;&#9;      "><text x="0" y="0" text-anchor="middle" dominant-baseline="text-before-edge" transform="translate(0,-6.5)"><tspan x="-5.831833591728101" y="0" dy="0" text-anchor="end" style="font-family: Arial, sans-serif; font-size: 10px; fill: black; font-weight: bold;">iBongbarian</tspan></text></g><g transform="&#xA;&#9;        rotate(102.92207197489864)&#xA;&#9;        translate(460,0)&#xA;&#9;        rotate(180)&#xA;&#9;      "><text x="0" y="0" text-anchor="middle" dominant-baseline="text-before-edge" transform="translate(0,-6.5)"><tspan x="-9.218229190493819" y="0" dy="0" text-anchor="end" style="font-family: Arial, sans-serif; font-size: 10px; fill: black; font-weight: bold;">Swans</tspan></text></g><g transform="&#xA;&#9;        rotate(110.46280050334977)&#xA;&#9;        translate(460,0)&#xA;&#9;        rotate(180)&#xA;&#9;      "><text x="0" y="0" text-anchor="middle" dominant-baseline="text-before-edge" transform="translate(0,-6.5)"><tspan x="-8.947147164073415" y="0" dy="0" text-anchor="end" style="font-family: Arial, sans-serif; font-size: 10px; fill: black; font-weight: bold;">Bent Knee</tspan></text></g><g transform="&#xA;&#9;        rotate(117.7620116664842)&#xA;&#9;        translate(460,0)&#xA;&#9;        rotate(180)&#xA;&#9;      "><text x="0" y="0" text-anchor="middle" dominant-baseline="text-before-edge" transform="translate(0,-6.5)"><tspan x="-6.812768274283726" y="0" dy="0" text-anchor="end" style="font-family: Arial, sans-serif; font-size: 10px; fill: black; font-weight: bold;">Mr. Bungle</tspan></text></g><g transform="&#xA;&#9;        rotate(124.81504426737007)&#xA;&#9;        translate(460,0)&#xA;&#9;        rotate(180)&#xA;&#9;      "><text x="0" y="0" text-anchor="middle" dominant-baseline="text-before-edge" transform="translate(0,-6.5)"><tspan x="-6.495261730821609" y="0" dy="0" text-anchor="end" style="font-family: Arial, sans-serif; font-size: 10px; fill: black; font-weight: bold;">Puscifer</tspan></text></g><g transform="&#xA;&#9;        rotate(131.9732622196619)&#xA;&#9;        translate(460,0)&#xA;&#9;        rotate(180)&#xA;&#9;      "><text x="0" y="0" text-anchor="middle" dominant-baseline="text-before-edge" transform="translate(0,-6.5)"><tspan x="-7.860391708867256" y="0" dy="0" text-anchor="end" style="font-family: Arial, sans-serif; font-size: 10px; fill: black; font-weight: bold;">GoGo Penguin</tspan></text></g><g transform="&#xA;&#9;        rotate(139.24432284285731)&#xA;&#9;        translate(460,0)&#xA;&#9;        rotate(180)&#xA;&#9;      "><text x="0" y="0" text-anchor="middle" dominant-baseline="text-before-edge" transform="translate(0,-6.5)"><tspan x="-7.619150417596758" y="0" dy="0" text-anchor="end" style="font-family: Arial, sans-serif; font-size: 10px; fill: black; font-weight: bold;">Sam Greenfield</tspan></text></g><g transform="&#xA;&#9;        rotate(146.36347131006053)&#xA;&#9;        translate(460,0)&#xA;&#9;        rotate(180)&#xA;&#9;      "><text x="0" y="0" text-anchor="middle" dominant-baseline="text-before-edge" transform="translate(0,-6.5)"><tspan x="-6.347379369332062" y="0" dy="0" text-anchor="end" style="font-family: Arial, sans-serif; font-size: 10px; fill: black; font-weight: bold;">Snarky Puppy</tspan></text></g><g transform="&#xA;&#9;        rotate(153.27676737153976)&#xA;&#9;        translate(460,0)&#xA;&#9;        rotate(180)&#xA;&#9;      "><text x="0" y="0" text-anchor="middle" dominant-baseline="text-before-edge" transform="translate(0,-6.5)"><tspan x="-5.568904813818039" y="0" dy="0" text-anchor="end" style="font-family: Arial, sans-serif; font-size: 10px; fill: black; font-weight: bold;">The Bad Plus</tspan></text></g><g transform="&#xA;&#9;        rotate(160.3851142230968)&#xA;&#9;        translate(460,0)&#xA;&#9;        rotate(180)&#xA;&#9;      "><text x="0" y="0" text-anchor="middle" dominant-baseline="text-before-edge" transform="translate(0,-6.5)"><tspan x="-8.290043208814312" y="0" dy="0" text-anchor="end" style="font-family: Arial, sans-serif; font-size: 10px; fill: black; font-weight: bold;">Roine Stolt</tspan></text></g><g transform="&#xA;&#9;        rotate(167.64310847147988)&#xA;&#9;        translate(460,0)&#xA;&#9;        rotate(180)&#xA;&#9;      "><text x="0" y="0" text-anchor="middle" dominant-baseline="text-before-edge" transform="translate(0,-6.5)"><tspan x="-7.059360640071777" y="0" dy="0" text-anchor="end" style="font-family: Arial, sans-serif; font-size: 10px; fill: black; font-weight: bold;">Teodor Currentzis</tspan></text></g><g transform="&#xA;&#9;        rotate(174.71122032768938)&#xA;&#9;        translate(460,0)&#xA;&#9;        rotate(180)&#xA;&#9;      "><text x="0" y="0" text-anchor="middle" dominant-baseline="text-before-edge" transform="translate(0,-6.5)"><tspan x="-6.3988554987670785" y="0" dy="0" text-anchor="end" style="font-family: Arial, sans-serif; font-size: 10px; fill: black; font-weight: bold;">Emmanuel Krivine</tspan></text></g><g transform="&#xA;&#9;        rotate(181.67625024013228)&#xA;&#9;        translate(460,0)&#xA;&#9;        rotate(180)&#xA;&#9;      "><text x="0" y="0" text-anchor="middle" dominant-baseline="text-before-edge" transform="translate(0,-6.5)"><tspan x="-6.032686692331579" y="0" dy="0" text-anchor="end" style="font-family: Arial, sans-serif; font-size: 10px; fill: black; font-weight: bold;">Los Angeles Philharmonic</tspan></text></g><g transform="&#xA;&#9;        rotate(188.60182817427568)&#xA;&#9;        translate(460,0)&#xA;&#9;        rotate(180)&#xA;&#9;      "><text x="0" y="0" text-anchor="middle" dominant-baseline="text-before-edge" transform="translate(0,-6.5)"><tspan x="-6.005922296046218" y="0" dy="0" text-anchor="end" style="font-family: Arial, sans-serif; font-size: 10px; fill: black; font-weight: bold;">Lang Lang</tspan></text></g><g transform="&#xA;&#9;        rotate(195.50488657007787)&#xA;&#9;        translate(460,0)&#xA;&#9;        rotate(180)&#xA;&#9;      "><text x="0" y="0" text-anchor="middle" dominant-baseline="text-before-edge" transform="translate(0,-6.5)"><tspan x="-5.80839694298049" y="0" dy="0" text-anchor="end" style="font-family: Arial, sans-serif; font-size: 10px; fill: black; font-weight: bold;">American Symphony Orchestra</tspan></text></g><g transform="&#xA;&#9;        rotate(202.3821155416204)&#xA;&#9;        translate(460,0)&#xA;&#9;        rotate(180)&#xA;&#9;      "><text x="0" y="0" text-anchor="middle" dominant-baseline="text-before-edge" transform="translate(0,-6.5)"><tspan x="-5.748666796163213" y="0" dy="0" text-anchor="end" style="font-family: Arial, sans-serif; font-size: 10px; fill: black; font-weight: bold;">Pierre Monteux</tspan></text></g><g transform="&#xA;&#9;        rotate(209.23474882440934)&#xA;&#9;        translate(460,0)&#xA;&#9;        rotate(180)&#xA;&#9;      "><text x="0" y="0" text-anchor="middle" dominant-baseline="text-before-edge" transform="translate(0,-6.5)"><tspan x="-5.563429182893299" y="0" dy="0" text-anchor="end" style="font-family: Arial, sans-serif; font-size: 10px; fill: black; font-weight: bold;">King Crimson</tspan></text></g><g transform="&#xA;&#9;        rotate(216.32072782245592)&#xA;&#9;        translate(460,0)&#xA;&#9;        rotate(180)&#xA;&#9;      "><text x="0" y="0" text-anchor="middle" dominant-baseline="text-before-edge" transform="translate(0,-6.5)"><tspan x="-8.072739838616432" y="0" dy="0" text-anchor="end" style="font-family: Arial, sans-serif; font-size: 10px; fill: black; font-weight: bold;">Sungazer</tspan></text></g><g transform="&#xA;&#9;        rotate(223.6508954426369)&#xA;&#9;        translate(460,0)&#xA;&#9;        rotate(180)&#xA;&#9;      "><text x="0" y="0" text-anchor="middle" dominant-baseline="text-before-edge" transform="translate(0,-6.5)"><tspan x="-7.995495241404376" y="0" dy="0" text-anchor="end" style="font-family: Arial, sans-serif; font-size: 10px; fill: black; font-weight: bold;">Muse</tspan></text></g><g transform="&#xA;&#9;        rotate(230.93590098940882)&#xA;&#9;        translate(460,0)&#xA;&#9;        rotate(180)&#xA;&#9;      "><text x="0" y="0" text-anchor="middle" dominant-baseline="text-before-edge" transform="translate(0,-6.5)"><tspan x="-7.622935319018706" y="0" dy="0" text-anchor="end" style="font-family: Arial, sans-serif; font-size: 10px; fill: black; font-weight: bold;">We Used to Cut the Grass</tspan></text></g><g transform="&#xA;&#9;        rotate(238.1810440560604)&#xA;&#9;        translate(460,0)&#xA;&#9;        rotate(180)&#xA;&#9;      "><text x="0" y="0" text-anchor="middle" dominant-baseline="text-before-edge" transform="translate(0,-6.5)"><tspan x="-7.59847352900419" y="0" dy="0" text-anchor="end" style="font-family: Arial, sans-serif; font-size: 10px; fill: black; font-weight: bold;">A Perfect Circle</tspan></text></g><g transform="&#xA;&#9;        rotate(245.35470670858837)&#xA;&#9;        translate(460,0)&#xA;&#9;        rotate(180)&#xA;&#9;      "><text x="0" y="0" text-anchor="middle" dominant-baseline="text-before-edge" transform="translate(0,-6.5)"><tspan x="-6.911005797001077" y="0" dy="0" text-anchor="end" style="font-family: Arial, sans-serif; font-size: 10px; fill: black; font-weight: bold;">Rage Against the Machine</tspan></text></g><g transform="&#xA;&#9;        rotate(252.38974704862477)&#xA;&#9;        translate(460,0)&#xA;&#9;        rotate(180)&#xA;&#9;      "><text x="0" y="0" text-anchor="middle" dominant-baseline="text-before-edge" transform="translate(0,-6.5)"><tspan x="-6.217825167028087" y="0" dy="0" text-anchor="end" style="font-family: Arial, sans-serif; font-size: 10px; fill: black; font-weight: bold;">Foo Fighters</tspan></text></g><g transform="&#xA;&#9;        rotate(259.32511368849083)&#xA;&#9;        translate(460,0)&#xA;&#9;        rotate(180)&#xA;&#9;      "><text x="0" y="0" text-anchor="middle" dominant-baseline="text-before-edge" transform="translate(0,-6.5)"><tspan x="-5.918277221069839" y="0" dy="0" text-anchor="end" style="font-family: Arial, sans-serif; font-size: 10px; fill: black; font-weight: bold;">Arctic Monkeys</tspan></text></g><g transform="&#xA;&#9;        rotate(266.2185206359589)&#xA;&#9;        translate(460,0)&#xA;&#9;        rotate(180)&#xA;&#9;      "><text x="0" y="0" text-anchor="middle" dominant-baseline="text-before-edge" transform="translate(0,-6.5)"><tspan x="-5.799915672250045" y="0" dy="0" text-anchor="end" style="font-family: Arial, sans-serif; font-size: 10px; fill: black; font-weight: bold;">Father John Misty</tspan></text></g></g></g></svg>