<svg xmlns="http://www.w3.org/2000/svg" width="2120" height="1080"><rect width="2120" height="1080" x="0" y="0" fill="#FFFFFF" id="backgorund"/><g transform="translate(50,50)" id="viz"><g id="y axis" fill="none" font-size="10" font-family="sans-serif" text-anchor="end"><path class="domain" stroke="currentColor" d="M-6,930.5H0.5V0.5H-6"/><g class="tick" opacity="1" transform="translate(0,930.5)"><line stroke="currentColor" x2="-6"/><text fill="currentColor" x="-9" dy="0.32em">0</text></g><g class="tick" opacity="1" transform="translate(0,797.6428571428572)"><line stroke="currentColor" x2="-6"/><text fill="currentColor" x="-9" dy="0.32em">5</text></g><g class="tick" opacity="1" transform="translate(0,664.7857142857143)"><line stroke="currentColor" x2="-6"/><text fill="currentColor" x="-9" dy="0.32em">10</text></g><g class="tick" opacity="1" transform="translate(0,531.9285714285714)"><line stroke="currentColor" x2="-6"/><text fill="currentColor" x="-9" dy="0.32em">15</text></g><g class="tick" opacity="1" transform="translate(0,399.0714285714286)"><line stroke="currentColor" x2="-6"/><text fill="currentColor" x="-9" dy="0.32em">20</text></g><g class="tick" opacity="1" transform="translate(0,266.2142857142857)"><line stroke="currentColor" x2="-6"/><text fill="currentColor" x="-9" dy="0.32em">25</text></g><g class="tick" opacity="1" transform="translate(0,133.3571428571429)"><line stroke="currentColor" x2="-6"/><text fill="currentColor" x="-9" dy="0.32em">30</text></g><g class="tick" opacity="1" transform="translate(0,0.5)"><line stroke="currentColor" x2="-6"/><text fill="currentColor" x="-9" dy="0.32em">35</text></g><text x="4" text-anchor="start" dominant-baseline="hanging" style="font-family: Arial, sans-serif; font-size: 12px; fill: rgb(123, 123, 123); font-weight: bold;">Duration(m)</text></g><g id="x axis" transform="translate(0,930)" fill="none" font-size="10" font-family="sans-serif" text-anchor="middle"><path class="domain" stroke="currentColor" d="M0.5,6V0.5H1860.5V6"/><g class="tick" opacity="1" transform="translate(66.64171122994657,0)"><line stroke="currentColor" y2="6"/><text fill="currentColor" y="9" dy="0.71em">Progressive Rock</text></g><g class="tick" opacity="1" transform="translate(189.97860962566847,0)"><line stroke="currentColor" y2="6"/><text fill="currentColor" y="9" dy="0.71em">Progressive Metal</text></g><g class="tick" opacity="1" transform="translate(313.3155080213904,0)"><line stroke="currentColor" y2="6"/><text fill="currentColor" y="9" dy="0.71em">Symphonic Rock</text></g><g class="tick" opacity="1" transform="translate(436.65240641711233,0)"><line stroke="currentColor" y2="6"/><text fill="currentColor" y="9" dy="0.71em">Psychedelic Rock</text></g><g class="tick" opacity="1" transform="translate(559.9893048128342,0)"><line stroke="currentColor" y2="6"/><text fill="currentColor" y="9" dy="0.71em">Art Rock</text></g><g class="tick" opacity="1" transform="translate(683.3262032085561,0)"><line stroke="currentColor" y2="6"/><text fill="currentColor" y="9" dy="0.71em">Jazz</text></g><g class="tick" opacity="1" transform="translate(806.6631016042782,0)"><line stroke="currentColor" y2="6"/><text fill="currentColor" y="9" dy="0.71em">Classical Music</text></g><g class="tick" opacity="1" transform="translate(930,0)"><line stroke="currentColor" y2="6"/><text fill="currentColor" y="9" dy="0.71em">Space Rock</text></g><g class="tick" opacity="1" transform="translate(1053.3368983957218,0)"><line stroke="currentColor" y2="6"/><text fill="currentColor" y="9" dy="0.71em">Progressive Blues</text></g><g class="tick" opacity="1" transform="translate(1176.673796791444,0)"><line stroke="currentColor" y2="6"/><text fill="currentColor" y="9" dy="0.71em">Alternative Rock</text></g><g class="tick" opacity="1" transform="translate(1300.0106951871658,0)"><line stroke="currentColor" y2="6"/><text fill="currentColor" y="9" dy="0.71em">Jazz Fusion</text></g><g class="tick" opacity="1" transform="translate(1423.3475935828876,0)"><line stroke="currentColor" y2="6"/><text fill="currentColor" y="9" dy="0.71em">Rap Metal</text></g><g class="tick" opacity="1" transform="translate(1546.6844919786097,0)"><line stroke="currentColor" y2="6"/><text fill="currentColor" y="9" dy="0.71em">ElectroJazz</text></g><g class="tick" opacity="1" transform="translate(1670.0213903743315,0)"><line stroke="currentColor" y2="6"/><text fill="currentColor" y="9" dy="0.71em">Rock</text></g><g class="tick" opacity="1" transform="translate(1793.3582887700534,0)"><line stroke="currentColor" y2="6"/><text fill="currentColor" y="9" dy="0.71em">Indie Folk</text></g><text x="1860" dy="-5" text-anchor="end" style="font-family: Arial, sans-serif; font-size: 12px; fill: rgb(123, 123, 123); font-weight: bold;">Genre</text></g><g id="shapes"><g id="Progressive Rock" transform="translate(9.946524064171172 ,0)" style="fill: rgb(23, 190, 207);"><path style="stroke: none;" d="M56.695187165775394,996.4285714285714C56.695187165775394,930,91.58453311394487,930,91.58453311394487,863.5714285714286C91.58453311394487,797.1428571428571,113.39037433155079,797.1428571428571,113.39037433155079,730.7142857142857C113.39037433155079,664.2857142857142,63.67305635540929,664.2857142857142,63.67305635540929,597.8571428571428C63.67305635540929,531.4285714285713,57.567420814479625,531.4285714285713,57.567420814479625,465C57.567420814479625,398.57142857142856,56.695187165775394,398.57142857142856,56.695187165775394,332.1428571428571C56.695187165775394,265.7142857142857,57.567420814479625,265.7142857142857,57.567420814479625,199.2857142857143C57.567420814479625,132.85714285714286,56.695187165775394,132.85714285714286,56.695187165775394,66.4285714285714C56.695187165775394,0,56.695187165775394,0,56.695187165775394,-66.4285714285714L56.695187165775394,-66.4285714285714C56.695187165775394,0,56.695187165775394,0,56.695187165775394,66.4285714285714C56.695187165775394,132.85714285714286,55.82295351707116,132.85714285714286,55.82295351707116,199.2857142857143C55.82295351707116,265.7142857142857,56.695187165775394,265.7142857142857,56.695187165775394,332.1428571428571C56.695187165775394,398.57142857142856,55.82295351707116,398.57142857142856,55.82295351707116,465C55.82295351707116,531.4285714285713,49.7173179761415,531.4285714285713,49.7173179761415,597.8571428571428C49.7173179761415,664.2857142857142,0,664.2857142857142,0,730.7142857142857C0,797.1428571428571,21.805841217605924,797.1428571428571,21.805841217605924,863.5714285714286C21.805841217605924,930,56.695187165775394,930,56.695187165775394,996.4285714285714Z"/><circle cy="842.8457142857143" cx="56.695187165775394" r="1" fill="black"/><circle cy="815.2114285714285" cx="56.695187165775394" r="1" fill="black"/><circle cy="814.4142857142857" cx="56.695187165775394" r="1" fill="black"/><circle cy="818.4" cx="56.695187165775394" r="1" fill="black"/><circle cy="859.5857142857143" cx="56.695187165775394" r="1" fill="black"/><circle cy="876.06" cx="56.695187165775394" r="1" fill="black"/><circle cy="897.5828571428572" cx="56.695187165775394" r="1" fill="black"/><circle cy="807.7714285714286" cx="56.695187165775394" r="1" fill="black"/><circle cy="878.7171428571428" cx="56.695187165775394" r="1" fill="black"/><circle cy="862.7742857142857" cx="56.695187165775394" r="1" fill="black"/><circle cy="832.2171428571428" cx="56.695187165775394" r="1" fill="black"/><circle cy="900.7714285714285" cx="56.695187165775394" r="1" fill="black"/><circle cy="820.5257142857143" cx="56.695187165775394" r="1" fill="black"/><circle cy="848.1600000000001" cx="56.695187165775394" r="1" fill="black"/><circle cy="824.2457142857144" cx="56.695187165775394" r="1" fill="black"/><circle cy="834.8742857142856" cx="56.695187165775394" r="1" fill="black"/><circle cy="844.44" cx="56.695187165775394" r="1" fill="black"/><circle cy="808.3028571428571" cx="56.695187165775394" r="1" fill="black"/><circle cy="818.9314285714286" cx="56.695187165775394" r="1" fill="black"/><circle cy="821.0571428571429" cx="56.695187165775394" r="1" fill="black"/><circle cy="822.3857142857144" cx="56.695187165775394" r="1" fill="black"/><circle cy="804.5828571428572" cx="56.695187165775394" r="1" fill="black"/><circle cy="827.7" cx="56.695187165775394" r="1" fill="black"/><circle cy="811.7571428571429" cx="56.695187165775394" r="1" fill="black"/><circle cy="846.3000000000001" cx="56.695187165775394" r="1" fill="black"/><circle cy="851.0828571428572" cx="56.695187165775394" r="1" fill="black"/><circle cy="840.1885714285714" cx="56.695187165775394" r="1" fill="black"/><circle cy="818.4" cx="56.695187165775394" r="1" fill="black"/><circle cy="832.2171428571428" cx="56.695187165775394" r="1" fill="black"/><circle cy="826.3714285714286" cx="56.695187165775394" r="1" fill="black"/><circle cy="888.8142857142857" cx="56.695187165775394" r="1" fill="black"/><circle cy="822.917142857143" cx="56.695187165775394" r="1" fill="black"/><circle cy="810.96" cx="56.695187165775394" r="1" fill="black"/><circle cy="812.5542857142857" cx="56.695187165775394" r="1" fill="black"/><circle cy="888.2828571428572" cx="56.695187165775394" r="1" fill="black"/><circle cy="838.86" cx="56.695187165775394" r="1" fill="black"/><circle cy="882.9685714285714" cx="56.695187165775394" r="1" fill="black"/><circle cy="852.1457142857142" cx="56.695187165775394" r="1" fill="black"/><circle cy="855.0685714285714" cx="56.695187165775394" r="1" fill="black"/><circle cy="801.1285714285714" cx="56.695187165775394" r="1" fill="black"/><circle cy="755.1600000000001" cx="56.695187165775394" r="1" fill="black"/><circle cy="723.5400000000001" cx="56.695187165775394" r="1" fill="black"/><circle cy="779.3399999999999" cx="56.695187165775394" r="1" fill="black"/><circle cy="751.44" cx="56.695187165775394" r="1" fill="black"/><circle cy="728.5885714285714" cx="56.695187165775394" r="1" fill="black"/><circle cy="741.3428571428572" cx="56.695187165775394" r="1" fill="black"/><circle cy="783.06" cx="56.695187165775394" r="1" fill="black"/><circle cy="778.0114285714285" cx="56.695187165775394" r="1" fill="black"/><circle cy="776.6828571428572" cx="56.695187165775394" r="1" fill="black"/><circle cy="775.0885714285714" cx="56.695187165775394" r="1" fill="black"/><circle cy="755.9571428571428" cx="56.695187165775394" r="1" fill="black"/><circle cy="755.9571428571428" cx="56.695187165775394" r="1" fill="black"/><circle cy="770.0400000000001" cx="56.695187165775394" r="1" fill="black"/><circle cy="680.76" cx="56.695187165775394" r="1" fill="black"/><circle cy="794.4857142857143" cx="56.695187165775394" r="1" fill="black"/><circle cy="758.0828571428572" cx="56.695187165775394" r="1" fill="black"/><circle cy="737.8885714285714" cx="56.695187165775394" r="1" fill="black"/><circle cy="785.7171428571429" cx="56.695187165775394" r="1" fill="black"/><circle cy="769.2428571428571" cx="56.695187165775394" r="1" fill="black"/><circle cy="747.4542857142857" cx="56.695187165775394" r="1" fill="black"/><circle cy="783.3257142857143" cx="56.695187165775394" r="1" fill="black"/><circle cy="772.4314285714286" cx="56.695187165775394" r="1" fill="black"/><circle cy="785.7171428571429" cx="56.695187165775394" r="1" fill="black"/><circle cy="789.7028571428572" cx="56.695187165775394" r="1" fill="black"/><circle cy="768.7114285714285" cx="56.695187165775394" r="1" fill="black"/><circle cy="759.9428571428572" cx="56.695187165775394" r="1" fill="black"/><circle cy="719.2885714285715" cx="56.695187165775394" r="1" fill="black"/><circle cy="694.0457142857142" cx="56.695187165775394" r="1" fill="black"/><circle cy="669.6" cx="56.695187165775394" r="1" fill="black"/><circle cy="714.7714285714286" cx="56.695187165775394" r="1" fill="black"/><circle cy="679.4314285714287" cx="56.695187165775394" r="1" fill="black"/><circle cy="714.24" cx="56.695187165775394" r="1" fill="black"/><circle cy="712.6457142857142" cx="56.695187165775394" r="1" fill="black"/><circle cy="763.9285714285714" cx="56.695187165775394" r="1" fill="black"/><circle cy="773.2285714285714" cx="56.695187165775394" r="1" fill="black"/><circle cy="790.5" cx="56.695187165775394" r="1" fill="black"/><circle cy="788.3742857142857" cx="56.695187165775394" r="1" fill="black"/><circle cy="745.86" cx="56.695187165775394" r="1" fill="black"/><circle cy="750.6428571428571" cx="56.695187165775394" r="1" fill="black"/><circle cy="734.1685714285713" cx="56.695187165775394" r="1" fill="black"/><circle cy="677.5714285714287" cx="56.695187165775394" r="1" fill="black"/><circle cy="711.3171428571429" cx="56.695187165775394" r="1" fill="black"/><circle cy="780.4028571428572" cx="56.695187165775394" r="1" fill="black"/><circle cy="732.84" cx="56.695187165775394" r="1" fill="black"/><circle cy="761.8028571428572" cx="56.695187165775394" r="1" fill="black"/><circle cy="750.1114285714286" cx="56.695187165775394" r="1" fill="black"/><circle cy="773.76" cx="56.695187165775394" r="1" fill="black"/><circle cy="718.7571428571429" cx="56.695187165775394" r="1" fill="black"/><circle cy="694.3114285714287" cx="56.695187165775394" r="1" fill="black"/><circle cy="729.9171428571428" cx="56.695187165775394" r="1" fill="black"/><circle cy="793.1571428571428" cx="56.695187165775394" r="1" fill="black"/><circle cy="727.5257142857142" cx="56.695187165775394" r="1" fill="black"/><circle cy="783.06" cx="56.695187165775394" r="1" fill="black"/><circle cy="763.3971428571429" cx="56.695187165775394" r="1" fill="black"/><circle cy="785.1857142857143" cx="56.695187165775394" r="1" fill="black"/><circle cy="718.7571428571429" cx="56.695187165775394" r="1" fill="black"/><circle cy="795.8142857142858" cx="56.695187165775394" r="1" fill="black"/><circle cy="727.5257142857142" cx="56.695187165775394" r="1" fill="black"/><circle cy="732.84" cx="56.695187165775394" r="1" fill="black"/><circle cy="719.5542857142857" cx="56.695187165775394" r="1" fill="black"/><circle cy="725.4" cx="56.695187165775394" r="1" fill="black"/><circle cy="781.7314285714285" cx="56.695187165775394" r="1" fill="black"/><circle cy="722.2114285714285" cx="56.695187165775394" r="1" fill="black"/><circle cy="767.1171428571429" cx="56.695187165775394" r="1" fill="black"/><circle cy="733.9028571428571" cx="56.695187165775394" r="1" fill="black"/><circle cy="662.9571428571429" cx="56.695187165775394" r="1" fill="black"/><circle cy="619.6457142857143" cx="56.695187165775394" r="1" fill="black"/><circle cy="658.4399999999999" cx="56.695187165775394" r="1" fill="black"/><circle cy="606.6257142857144" cx="56.695187165775394" r="1" fill="black"/><circle cy="568.6285714285714" cx="56.695187165775394" r="1" fill="black"/><circle cy="612.4714285714285" cx="56.695187165775394" r="1" fill="black"/><circle cy="589.0885714285714" cx="56.695187165775394" r="1" fill="black"/><circle cy="631.602857142857" cx="56.695187165775394" r="1" fill="black"/><circle cy="513.6257142857143" cx="56.695187165775394" r="1" fill="black"/><circle cy="192.64285714285717" cx="56.695187165775394" r="1" fill="black"/></g><g id="Progressive Metal" transform="translate(133.28342245989307 ,0)" style="fill: rgb(188, 189, 34);"><path style="stroke: none;" d="M56.695187165775394,996.4285714285714C56.695187165775394,930,76.75656108597285,930,76.75656108597285,863.5714285714286C76.75656108597285,797.1428571428571,89.8400658165364,797.1428571428571,89.8400658165364,730.7142857142857C89.8400658165364,664.2857142857142,65.41752365281776,664.2857142857142,65.41752365281776,597.8571428571428C65.41752365281776,531.4285714285713,57.567420814479625,531.4285714285713,57.567420814479625,465C57.567420814479625,398.57142857142856,57.567420814479625,398.57142857142856,57.567420814479625,332.1428571428571C57.567420814479625,265.7142857142857,56.695187165775394,265.7142857142857,56.695187165775394,199.2857142857143C56.695187165775394,132.85714285714286,56.695187165775394,132.85714285714286,56.695187165775394,66.4285714285714C56.695187165775394,0,56.695187165775394,0,56.695187165775394,-66.4285714285714L56.695187165775394,-66.4285714285714C56.695187165775394,0,56.695187165775394,0,56.695187165775394,66.4285714285714C56.695187165775394,132.85714285714286,56.695187165775394,132.85714285714286,56.695187165775394,199.2857142857143C56.695187165775394,265.7142857142857,55.82295351707116,265.7142857142857,55.82295351707116,332.1428571428571C55.82295351707116,398.57142857142856,55.82295351707116,398.57142857142856,55.82295351707116,465C55.82295351707116,531.4285714285713,47.972850678733025,531.4285714285713,47.972850678733025,597.8571428571428C47.972850678733025,664.2857142857142,23.550308515014397,664.2857142857142,23.550308515014397,730.7142857142857C23.550308515014397,797.1428571428571,36.63381324557795,797.1428571428571,36.63381324557795,863.5714285714286C36.63381324557795,930,56.695187165775394,930,56.695187165775394,996.4285714285714Z"/><circle cy="851.6142857142858" cx="56.695187165775394" r="1" fill="black"/><circle cy="804.5828571428572" cx="56.695187165775394" r="1" fill="black"/><circle cy="812.5542857142857" cx="56.695187165775394" r="1" fill="black"/><circle cy="870.7457142857143" cx="56.695187165775394" r="1" fill="black"/><circle cy="810.96" cx="56.695187165775394" r="1" fill="black"/><circle cy="806.4428571428571" cx="56.695187165775394" r="1" fill="black"/><circle cy="843.6428571428571" cx="56.695187165775394" r="1" fill="black"/><circle cy="813.8828571428571" cx="56.695187165775394" r="1" fill="black"/><circle cy="810.4285714285714" cx="56.695187165775394" r="1" fill="black"/><circle cy="799.0028571428572" cx="56.695187165775394" r="1" fill="black"/><circle cy="813.0857142857143" cx="56.695187165775394" r="1" fill="black"/><circle cy="801.9257142857143" cx="56.695187165775394" r="1" fill="black"/><circle cy="881.64" cx="56.695187165775394" r="1" fill="black"/><circle cy="824.2457142857144" cx="56.695187165775394" r="1" fill="black"/><circle cy="802.9885714285714" cx="56.695187165775394" r="1" fill="black"/><circle cy="848.1600000000001" cx="56.695187165775394" r="1" fill="black"/><circle cy="897.5828571428572" cx="56.695187165775394" r="1" fill="black"/><circle cy="901.3028571428571" cx="56.695187165775394" r="1" fill="black"/><circle cy="801.9257142857143" cx="56.695187165775394" r="1" fill="black"/><circle cy="845.7685714285715" cx="56.695187165775394" r="1" fill="black"/><circle cy="873.4028571428572" cx="56.695187165775394" r="1" fill="black"/><circle cy="812.5542857142857" cx="56.695187165775394" r="1" fill="black"/><circle cy="814.4142857142857" cx="56.695187165775394" r="1" fill="black"/><circle cy="736.5600000000001" cx="56.695187165775394" r="1" fill="black"/><circle cy="787.8428571428572" cx="56.695187165775394" r="1" fill="black"/><circle cy="785.1857142857143" cx="56.695187165775394" r="1" fill="black"/><circle cy="780.6685714285715" cx="56.695187165775394" r="1" fill="black"/><circle cy="755.4257142857143" cx="56.695187165775394" r="1" fill="black"/><circle cy="797.1428571428572" cx="56.695187165775394" r="1" fill="black"/><circle cy="770.0400000000001" cx="56.695187165775394" r="1" fill="black"/><circle cy="749.8457142857143" cx="56.695187165775394" r="1" fill="black"/><circle cy="746.6571428571428" cx="56.695187165775394" r="1" fill="black"/><circle cy="761.8028571428572" cx="56.695187165775394" r="1" fill="black"/><circle cy="712.9114285714286" cx="56.695187165775394" r="1" fill="black"/><circle cy="695.3742857142857" cx="56.695187165775394" r="1" fill="black"/><circle cy="756.7542857142857" cx="56.695187165775394" r="1" fill="black"/><circle cy="680.2285714285714" cx="56.695187165775394" r="1" fill="black"/><circle cy="761.8028571428572" cx="56.695187165775394" r="1" fill="black"/><circle cy="787.0457142857143" cx="56.695187165775394" r="1" fill="black"/><circle cy="769.7742857142857" cx="56.695187165775394" r="1" fill="black"/><circle cy="667.74" cx="56.695187165775394" r="1" fill="black"/><circle cy="706.0028571428571" cx="56.695187165775394" r="1" fill="black"/><circle cy="779.0742857142858" cx="56.695187165775394" r="1" fill="black"/><circle cy="676.7742857142857" cx="56.695187165775394" r="1" fill="black"/><circle cy="766.5857142857143" cx="56.695187165775394" r="1" fill="black"/><circle cy="769.2428571428571" cx="56.695187165775394" r="1" fill="black"/><circle cy="666.4114285714286" cx="56.695187165775394" r="1" fill="black"/><circle cy="734.1685714285713" cx="56.695187165775394" r="1" fill="black"/><circle cy="754.6285714285714" cx="56.695187165775394" r="1" fill="black"/><circle cy="680.76" cx="56.695187165775394" r="1" fill="black"/><circle cy="713.9742857142857" cx="56.695187165775394" r="1" fill="black"/><circle cy="768.7114285714285" cx="56.695187165775394" r="1" fill="black"/><circle cy="751.1742857142857" cx="56.695187165775394" r="1" fill="black"/><circle cy="737.8885714285714" cx="56.695187165775394" r="1" fill="black"/><circle cy="701.4857142857144" cx="56.695187165775394" r="1" fill="black"/><circle cy="682.8857142857142" cx="56.695187165775394" r="1" fill="black"/><circle cy="791.2971428571428" cx="56.695187165775394" r="1" fill="black"/><circle cy="754.0971428571428" cx="56.695187165775394" r="1" fill="black"/><circle cy="783.3257142857143" cx="56.695187165775394" r="1" fill="black"/><circle cy="796.6114285714285" cx="56.695187165775394" r="1" fill="black"/><circle cy="793.9542857142857" cx="56.695187165775394" r="1" fill="black"/><circle cy="644.8885714285714" cx="56.695187165775394" r="1" fill="black"/><circle cy="658.9714285714286" cx="56.695187165775394" r="1" fill="black"/><circle cy="632.4" cx="56.695187165775394" r="1" fill="black"/><circle cy="634.26" cx="56.695187165775394" r="1" fill="black"/><circle cy="661.6285714285715" cx="56.695187165775394" r="1" fill="black"/><circle cy="567.8314285714285" cx="56.695187165775394" r="1" fill="black"/><circle cy="591.2142857142857" cx="56.695187165775394" r="1" fill="black"/><circle cy="613.8" cx="56.695187165775394" r="1" fill="black"/><circle cy="654.9857142857143" cx="56.695187165775394" r="1" fill="black"/><circle cy="625.2257142857143" cx="56.695187165775394" r="1" fill="black"/><circle cy="512.0314285714285" cx="56.695187165775394" r="1" fill="black"/><circle cy="292.2857142857143" cx="56.695187165775394" r="1" fill="black"/></g><g id="Symphonic Rock" transform="translate(256.620320855615 ,0)" style="fill: rgb(204, 204, 204);"><path style="stroke: none;" d="M56.695187165775394,996.4285714285714C56.695187165775394,930,91.58453311394487,930,91.58453311394487,863.5714285714286C91.58453311394487,797.1428571428571,88.09559851912792,797.1428571428571,88.09559851912792,730.7142857142857C88.09559851912792,664.2857142857142,56.695187165775394,664.2857142857142,56.695187165775394,597.8571428571428C56.695187165775394,531.4285714285713,56.695187165775394,531.4285714285713,56.695187165775394,465C56.695187165775394,398.57142857142856,56.695187165775394,398.57142857142856,56.695187165775394,332.1428571428571C56.695187165775394,265.7142857142857,56.695187165775394,265.7142857142857,56.695187165775394,199.2857142857143C56.695187165775394,132.85714285714286,56.695187165775394,132.85714285714286,56.695187165775394,66.4285714285714C56.695187165775394,0,56.695187165775394,0,56.695187165775394,-66.4285714285714L56.695187165775394,-66.4285714285714C56.695187165775394,0,56.695187165775394,0,56.695187165775394,66.4285714285714C56.695187165775394,132.85714285714286,56.695187165775394,132.85714285714286,56.695187165775394,199.2857142857143C56.695187165775394,265.7142857142857,56.695187165775394,265.7142857142857,56.695187165775394,332.1428571428571C56.695187165775394,398.57142857142856,56.695187165775394,398.57142857142856,56.695187165775394,465C56.695187165775394,531.4285714285713,56.695187165775394,531.4285714285713,56.695187165775394,597.8571428571428C56.695187165775394,664.2857142857142,25.29477581242287,664.2857142857142,25.29477581242287,730.7142857142857C25.29477581242287,797.1428571428571,21.805841217605924,797.1428571428571,21.805841217605924,863.5714285714286C21.805841217605924,930,56.695187165775394,930,56.695187165775394,996.4285714285714Z"/><circle cy="817.0714285714286" cx="56.695187165775394" r="1" fill="black"/><circle cy="893.3314285714287" cx="56.695187165775394" r="1" fill="black"/><circle cy="841.5171428571429" cx="56.695187165775394" r="1" fill="black"/><circle cy="833.8114285714286" cx="56.695187165775394" r="1" fill="black"/><circle cy="805.6457142857143" cx="56.695187165775394" r="1" fill="black"/><circle cy="854.2714285714286" cx="56.695187165775394" r="1" fill="black"/><circle cy="808.3028571428571" cx="56.695187165775394" r="1" fill="black"/><circle cy="828.2314285714285" cx="56.695187165775394" r="1" fill="black"/><circle cy="818.4" cx="56.695187165775394" r="1" fill="black"/><circle cy="808.3028571428571" cx="56.695187165775394" r="1" fill="black"/><circle cy="884.2971428571428" cx="56.695187165775394" r="1" fill="black"/><circle cy="878.7171428571428" cx="56.695187165775394" r="1" fill="black"/><circle cy="839.1257142857143" cx="56.695187165775394" r="1" fill="black"/><circle cy="869.6828571428572" cx="56.695187165775394" r="1" fill="black"/><circle cy="843.6428571428571" cx="56.695187165775394" r="1" fill="black"/><circle cy="821.5885714285714" cx="56.695187165775394" r="1" fill="black"/><circle cy="833.0142857142857" cx="56.695187165775394" r="1" fill="black"/><circle cy="833.0142857142857" cx="56.695187165775394" r="1" fill="black"/><circle cy="805.6457142857143" cx="56.695187165775394" r="1" fill="black"/><circle cy="817.8685714285715" cx="56.695187165775394" r="1" fill="black"/><circle cy="801.1285714285714" cx="56.695187165775394" r="1" fill="black"/><circle cy="806.4428571428571" cx="56.695187165775394" r="1" fill="black"/><circle cy="801.9257142857143" cx="56.695187165775394" r="1" fill="black"/><circle cy="801.9257142857143" cx="56.695187165775394" r="1" fill="black"/><circle cy="886.6885714285714" cx="56.695187165775394" r="1" fill="black"/><circle cy="886.6885714285714" cx="56.695187165775394" r="1" fill="black"/><circle cy="817.8685714285715" cx="56.695187165775394" r="1" fill="black"/><circle cy="829.0285714285715" cx="56.695187165775394" r="1" fill="black"/><circle cy="829.0285714285715" cx="56.695187165775394" r="1" fill="black"/><circle cy="830.8885714285715" cx="56.695187165775394" r="1" fill="black"/><circle cy="803.7857142857143" cx="56.695187165775394" r="1" fill="black"/><circle cy="798.4714285714285" cx="56.695187165775394" r="1" fill="black"/><circle cy="798.4714285714285" cx="56.695187165775394" r="1" fill="black"/><circle cy="815.7428571428571" cx="56.695187165775394" r="1" fill="black"/><circle cy="797.6742857142857" cx="56.695187165775394" r="1" fill="black"/><circle cy="913.26" cx="56.695187165775394" r="1" fill="black"/><circle cy="817.8685714285715" cx="56.695187165775394" r="1" fill="black"/><circle cy="808.5685714285714" cx="56.695187165775394" r="1" fill="black"/><circle cy="817.8685714285715" cx="56.695187165775394" r="1" fill="black"/><circle cy="822.3857142857144" cx="56.695187165775394" r="1" fill="black"/><circle cy="797.1428571428572" cx="56.695187165775394" r="1" fill="black"/><circle cy="796.6114285714285" cx="56.695187165775394" r="1" fill="black"/><circle cy="751.44" cx="56.695187165775394" r="1" fill="black"/><circle cy="791.8285714285714" cx="56.695187165775394" r="1" fill="black"/><circle cy="766.0542857142857" cx="56.695187165775394" r="1" fill="black"/><circle cy="786.5142857142856" cx="56.695187165775394" r="1" fill="black"/><circle cy="793.9542857142857" cx="56.695187165775394" r="1" fill="black"/><circle cy="761.8028571428572" cx="56.695187165775394" r="1" fill="black"/><circle cy="789.1714285714286" cx="56.695187165775394" r="1" fill="black"/><circle cy="783.06" cx="56.695187165775394" r="1" fill="black"/><circle cy="779.3399999999999" cx="56.695187165775394" r="1" fill="black"/><circle cy="751.9714285714286" cx="56.695187165775394" r="1" fill="black"/><circle cy="690.8571428571429" cx="56.695187165775394" r="1" fill="black"/><circle cy="789.9685714285714" cx="56.695187165775394" r="1" fill="black"/><circle cy="770.5714285714286" cx="56.695187165775394" r="1" fill="black"/><circle cy="743.2028571428572" cx="56.695187165775394" r="1" fill="black"/><circle cy="772.4314285714286" cx="56.695187165775394" r="1" fill="black"/><circle cy="772.4314285714286" cx="56.695187165775394" r="1" fill="black"/><circle cy="772.4314285714286" cx="56.695187165775394" r="1" fill="black"/><circle cy="777.2142857142858" cx="56.695187165775394" r="1" fill="black"/><circle cy="777.2142857142858" cx="56.695187165775394" r="1" fill="black"/><circle cy="796.6114285714285" cx="56.695187165775394" r="1" fill="black"/><circle cy="784.3885714285714" cx="56.695187165775394" r="1" fill="black"/><circle cy="740.0142857142857" cx="56.695187165775394" r="1" fill="black"/><circle cy="722.7428571428571" cx="56.695187165775394" r="1" fill="black"/><circle cy="722.2114285714285" cx="56.695187165775394" r="1" fill="black"/><circle cy="723.5400000000001" cx="56.695187165775394" r="1" fill="black"/><circle cy="723.5400000000001" cx="56.695187165775394" r="1" fill="black"/><circle cy="767.9142857142857" cx="56.695187165775394" r="1" fill="black"/><circle cy="767.9142857142857" cx="56.695187165775394" r="1" fill="black"/><circle cy="678.1028571428571" cx="56.695187165775394" r="1" fill="black"/><circle cy="742.6714285714286" cx="56.695187165775394" r="1" fill="black"/><circle cy="770.5714285714286" cx="56.695187165775394" r="1" fill="black"/><circle cy="779.0742857142858" cx="56.695187165775394" r="1" fill="black"/><circle cy="785.1857142857143" cx="56.695187165775394" r="1" fill="black"/><circle cy="767.3828571428571" cx="56.695187165775394" r="1" fill="black"/></g><g id="Psychedelic Rock" transform="translate(379.95721925133694 ,0)" style="fill: rgb(204, 204, 204);"><path style="stroke: none;" d="M56.695187165775394,996.4285714285714C56.695187165775394,930,109.02920608802961,930,109.02920608802961,863.5714285714286C109.02920608802961,797.1428571428571,71.52315919374742,797.1428571428571,71.52315919374742,730.7142857142857C71.52315919374742,664.2857142857142,56.695187165775394,664.2857142857142,56.695187165775394,597.8571428571428C56.695187165775394,531.4285714285713,57.567420814479625,531.4285714285713,57.567420814479625,465C57.567420814479625,398.57142857142856,56.695187165775394,398.57142857142856,56.695187165775394,332.1428571428571C56.695187165775394,265.7142857142857,56.695187165775394,265.7142857142857,56.695187165775394,199.2857142857143C56.695187165775394,132.85714285714286,56.695187165775394,132.85714285714286,56.695187165775394,66.4285714285714C56.695187165775394,0,56.695187165775394,0,56.695187165775394,-66.4285714285714L56.695187165775394,-66.4285714285714C56.695187165775394,0,56.695187165775394,0,56.695187165775394,66.4285714285714C56.695187165775394,132.85714285714286,56.695187165775394,132.85714285714286,56.695187165775394,199.2857142857143C56.695187165775394,265.7142857142857,56.695187165775394,265.7142857142857,56.695187165775394,332.1428571428571C56.695187165775394,398.57142857142856,55.82295351707116,398.57142857142856,55.82295351707116,465C55.82295351707116,531.4285714285713,56.695187165775394,531.4285714285713,56.695187165775394,597.8571428571428C56.695187165775394,664.2857142857142,41.86721513780337,664.2857142857142,41.86721513780337,730.7142857142857C41.86721513780337,797.1428571428571,4.361168243521185,797.1428571428571,4.361168243521185,863.5714285714286C4.361168243521185,930,56.695187165775394,930,56.695187165775394,996.4285714285714Z"/><circle cy="848.9571428571428" cx="56.695187165775394" r="1" fill="black"/><circle cy="837" cx="56.695187165775394" r="1" fill="black"/><circle cy="853.74" cx="56.695187165775394" r="1" fill="black"/><circle cy="833.5457142857142" cx="56.695187165775394" r="1" fill="black"/><circle cy="825.84" cx="56.695187165775394" r="1" fill="black"/><circle cy="835.6714285714286" cx="56.695187165775394" r="1" fill="black"/><circle cy="856.1314285714286" cx="56.695187165775394" r="1" fill="black"/><circle cy="836.2028571428572" cx="56.695187165775394" r="1" fill="black"/><circle cy="841.7828571428571" cx="56.695187165775394" r="1" fill="black"/><circle cy="827.7" cx="56.695187165775394" r="1" fill="black"/><circle cy="821.5885714285714" cx="56.695187165775394" r="1" fill="black"/><circle cy="823.1828571428571" cx="56.695187165775394" r="1" fill="black"/><circle cy="807.7714285714286" cx="56.695187165775394" r="1" fill="black"/><circle cy="821.5885714285714" cx="56.695187165775394" r="1" fill="black"/><circle cy="846.3000000000001" cx="56.695187165775394" r="1" fill="black"/><circle cy="832.4828571428571" cx="56.695187165775394" r="1" fill="black"/><circle cy="818.4" cx="56.695187165775394" r="1" fill="black"/><circle cy="832.2171428571428" cx="56.695187165775394" r="1" fill="black"/><circle cy="828.4971428571429" cx="56.695187165775394" r="1" fill="black"/><circle cy="861.7114285714287" cx="56.695187165775394" r="1" fill="black"/><circle cy="817.0714285714286" cx="56.695187165775394" r="1" fill="black"/><circle cy="844.1742857142857" cx="56.695187165775394" r="1" fill="black"/><circle cy="848.4257142857142" cx="56.695187165775394" r="1" fill="black"/><circle cy="835.14" cx="56.695187165775394" r="1" fill="black"/><circle cy="804.3171428571429" cx="56.695187165775394" r="1" fill="black"/><circle cy="850.2857142857142" cx="56.695187165775394" r="1" fill="black"/><circle cy="835.14" cx="56.695187165775394" r="1" fill="black"/><circle cy="835.14" cx="56.695187165775394" r="1" fill="black"/><circle cy="801.66" cx="56.695187165775394" r="1" fill="black"/><circle cy="824.2457142857144" cx="56.695187165775394" r="1" fill="black"/><circle cy="834.8742857142856" cx="56.695187165775394" r="1" fill="black"/><circle cy="833.5457142857142" cx="56.695187165775394" r="1" fill="black"/><circle cy="831.1542857142857" cx="56.695187165775394" r="1" fill="black"/><circle cy="817.8685714285715" cx="56.695187165775394" r="1" fill="black"/><circle cy="812.5542857142857" cx="56.695187165775394" r="1" fill="black"/><circle cy="823.7142857142857" cx="56.695187165775394" r="1" fill="black"/><circle cy="832.2171428571428" cx="56.695187165775394" r="1" fill="black"/><circle cy="798.4714285714285" cx="56.695187165775394" r="1" fill="black"/><circle cy="848.4257142857142" cx="56.695187165775394" r="1" fill="black"/><circle cy="810.96" cx="56.695187165775394" r="1" fill="black"/><circle cy="859.0542857142857" cx="56.695187165775394" r="1" fill="black"/><circle cy="825.0428571428571" cx="56.695187165775394" r="1" fill="black"/><circle cy="808.5685714285714" cx="56.695187165775394" r="1" fill="black"/><circle cy="797.9399999999999" cx="56.695187165775394" r="1" fill="black"/><circle cy="817.8685714285715" cx="56.695187165775394" r="1" fill="black"/><circle cy="826.9028571428571" cx="56.695187165775394" r="1" fill="black"/><circle cy="815.2114285714285" cx="56.695187165775394" r="1" fill="black"/><circle cy="837" cx="56.695187165775394" r="1" fill="black"/><circle cy="886.9542857142858" cx="56.695187165775394" r="1" fill="black"/><circle cy="812.5542857142857" cx="56.695187165775394" r="1" fill="black"/><circle cy="805.1142857142856" cx="56.695187165775394" r="1" fill="black"/><circle cy="824.2457142857144" cx="56.695187165775394" r="1" fill="black"/><circle cy="840.4542857142857" cx="56.695187165775394" r="1" fill="black"/><circle cy="802.4571428571429" cx="56.695187165775394" r="1" fill="black"/><circle cy="840.9857142857143" cx="56.695187165775394" r="1" fill="black"/><circle cy="824.2457142857144" cx="56.695187165775394" r="1" fill="black"/><circle cy="809.6314285714285" cx="56.695187165775394" r="1" fill="black"/><circle cy="840.9857142857143" cx="56.695187165775394" r="1" fill="black"/><circle cy="810.4285714285714" cx="56.695187165775394" r="1" fill="black"/><circle cy="811.7571428571429" cx="56.695187165775394" r="1" fill="black"/><circle cy="765.2571428571429" cx="56.695187165775394" r="1" fill="black"/><circle cy="757.8171428571428" cx="56.695187165775394" r="1" fill="black"/><circle cy="789.9685714285714" cx="56.695187165775394" r="1" fill="black"/><circle cy="789.1714285714286" cx="56.695187165775394" r="1" fill="black"/><circle cy="775.0885714285714" cx="56.695187165775394" r="1" fill="black"/><circle cy="738.1542857142857" cx="56.695187165775394" r="1" fill="black"/><circle cy="785.1857142857143" cx="56.695187165775394" r="1" fill="black"/><circle cy="722.7428571428571" cx="56.695187165775394" r="1" fill="black"/><circle cy="796.3457142857143" cx="56.695187165775394" r="1" fill="black"/><circle cy="748.7828571428572" cx="56.695187165775394" r="1" fill="black"/><circle cy="785.9828571428571" cx="56.695187165775394" r="1" fill="black"/><circle cy="793.6885714285714" cx="56.695187165775394" r="1" fill="black"/><circle cy="778.5428571428572" cx="56.695187165775394" r="1" fill="black"/><circle cy="768.4457142857143" cx="56.695187165775394" r="1" fill="black"/><circle cy="748.7828571428572" cx="56.695187165775394" r="1" fill="black"/><circle cy="796.3457142857143" cx="56.695187165775394" r="1" fill="black"/><circle cy="724.6028571428571" cx="56.695187165775394" r="1" fill="black"/><circle cy="443.7428571428571" cx="56.695187165775394" r="1" fill="black"/></g><g id="Art Rock" transform="translate(503.29411764705884 ,0)" style="fill: rgb(255, 127, 14);"><path style="stroke: none;" d="M56.695187165775394,996.4285714285714C56.695187165775394,930,73.2676264911559,930,73.2676264911559,863.5714285714286C73.2676264911559,797.1428571428571,75.8843274372686,797.1428571428571,75.8843274372686,730.7142857142857C75.8843274372686,664.2857142857142,57.567420814479625,664.2857142857142,57.567420814479625,597.8571428571428C57.567420814479625,531.4285714285713,56.695187165775394,531.4285714285713,56.695187165775394,465C56.695187165775394,398.57142857142856,56.695187165775394,398.57142857142856,56.695187165775394,332.1428571428571C56.695187165775394,265.7142857142857,56.695187165775394,265.7142857142857,56.695187165775394,199.2857142857143C56.695187165775394,132.85714285714286,57.567420814479625,132.85714285714286,57.567420814479625,66.4285714285714C57.567420814479625,0,56.695187165775394,0,56.695187165775394,-66.4285714285714L56.695187165775394,-66.4285714285714C56.695187165775394,0,55.82295351707116,0,55.82295351707116,66.4285714285714C55.82295351707116,132.85714285714286,56.695187165775394,132.85714285714286,56.695187165775394,199.2857142857143C56.695187165775394,265.7142857142857,56.695187165775394,265.7142857142857,56.695187165775394,332.1428571428571C56.695187165775394,398.57142857142856,56.695187165775394,398.57142857142856,56.695187165775394,465C56.695187165775394,531.4285714285713,55.82295351707116,531.4285714285713,55.82295351707116,597.8571428571428C55.82295351707116,664.2857142857142,37.506046894282186,664.2857142857142,37.506046894282186,730.7142857142857C37.506046894282186,797.1428571428571,40.122747840394894,797.1428571428571,40.122747840394894,863.5714285714286C40.122747840394894,930,56.695187165775394,930,56.695187165775394,996.4285714285714Z"/><circle cy="907.9457142857143" cx="56.695187165775394" r="1" fill="black"/><circle cy="805.1142857142856" cx="56.695187165775394" r="1" fill="black"/><circle cy="837" cx="56.695187165775394" r="1" fill="black"/><circle cy="797.9399999999999" cx="56.695187165775394" r="1" fill="black"/><circle cy="894.9257142857143" cx="56.695187165775394" r="1" fill="black"/><circle cy="830.3571428571429" cx="56.695187165775394" r="1" fill="black"/><circle cy="884.8285714285714" cx="56.695187165775394" r="1" fill="black"/><circle cy="876.8571428571429" cx="56.695187165775394" r="1" fill="black"/><circle cy="825.5742857142857" cx="56.695187165775394" r="1" fill="black"/><circle cy="862.2428571428571" cx="56.695187165775394" r="1" fill="black"/><circle cy="812.5542857142857" cx="56.695187165775394" r="1" fill="black"/><circle cy="810.96" cx="56.695187165775394" r="1" fill="black"/><circle cy="851.0828571428572" cx="56.695187165775394" r="1" fill="black"/><circle cy="821.8542857142857" cx="56.695187165775394" r="1" fill="black"/><circle cy="835.14" cx="56.695187165775394" r="1" fill="black"/><circle cy="799.2685714285715" cx="56.695187165775394" r="1" fill="black"/><circle cy="819.1971428571429" cx="56.695187165775394" r="1" fill="black"/><circle cy="826.3714285714286" cx="56.695187165775394" r="1" fill="black"/><circle cy="797.9399999999999" cx="56.695187165775394" r="1" fill="black"/><circle cy="764.7257142857143" cx="56.695187165775394" r="1" fill="black"/><circle cy="685.0114285714285" cx="56.695187165775394" r="1" fill="black"/><circle cy="774.5571428571428" cx="56.695187165775394" r="1" fill="black"/><circle cy="793.6885714285714" cx="56.695187165775394" r="1" fill="black"/><circle cy="788.3742857142857" cx="56.695187165775394" r="1" fill="black"/><circle cy="767.9142857142857" cx="56.695187165775394" r="1" fill="black"/><circle cy="771.3685714285714" cx="56.695187165775394" r="1" fill="black"/><circle cy="752.7685714285714" cx="56.695187165775394" r="1" fill="black"/><circle cy="779.0742857142858" cx="56.695187165775394" r="1" fill="black"/><circle cy="788.3742857142857" cx="56.695187165775394" r="1" fill="black"/><circle cy="788.64" cx="56.695187165775394" r="1" fill="black"/><circle cy="778.5428571428572" cx="56.695187165775394" r="1" fill="black"/><circle cy="789.7028571428572" cx="56.695187165775394" r="1" fill="black"/><circle cy="751.44" cx="56.695187165775394" r="1" fill="black"/><circle cy="771.3685714285714" cx="56.695187165775394" r="1" fill="black"/><circle cy="789.1714285714286" cx="56.695187165775394" r="1" fill="black"/><circle cy="794.4857142857143" cx="56.695187165775394" r="1" fill="black"/><circle cy="715.5685714285714" cx="56.695187165775394" r="1" fill="black"/><circle cy="740.5457142857142" cx="56.695187165775394" r="1" fill="black"/><circle cy="793.1571428571428" cx="56.695187165775394" r="1" fill="black"/><circle cy="769.2428571428571" cx="56.695187165775394" r="1" fill="black"/><circle cy="795.0171428571429" cx="56.695187165775394" r="1" fill="black"/><circle cy="593.8714285714286" cx="56.695187165775394" r="1" fill="black"/><circle cy="24.445714285714352" cx="56.695187165775394" r="1" fill="black"/></g><g id="Jazz" transform="translate(626.6310160427807 ,0)" style="fill: rgb(140, 86, 75);"><path style="stroke: none;" d="M56.695187165775394,996.4285714285714C56.695187165775394,930,77.62879473467707,930,77.62879473467707,863.5714285714286C77.62879473467707,797.1428571428571,63.67305635540929,797.1428571428571,63.67305635540929,730.7142857142857C63.67305635540929,664.2857142857142,56.695187165775394,664.2857142857142,56.695187165775394,597.8571428571428C56.695187165775394,531.4285714285713,56.695187165775394,531.4285714285713,56.695187165775394,465C56.695187165775394,398.57142857142856,56.695187165775394,398.57142857142856,56.695187165775394,332.1428571428571C56.695187165775394,265.7142857142857,56.695187165775394,265.7142857142857,56.695187165775394,199.2857142857143C56.695187165775394,132.85714285714286,56.695187165775394,132.85714285714286,56.695187165775394,66.4285714285714C56.695187165775394,0,56.695187165775394,0,56.695187165775394,-66.4285714285714L56.695187165775394,-66.4285714285714C56.695187165775394,0,56.695187165775394,0,56.695187165775394,66.4285714285714C56.695187165775394,132.85714285714286,56.695187165775394,132.85714285714286,56.695187165775394,199.2857142857143C56.695187165775394,265.7142857142857,56.695187165775394,265.7142857142857,56.695187165775394,332.1428571428571C56.695187165775394,398.57142857142856,56.695187165775394,398.57142857142856,56.695187165775394,465C56.695187165775394,531.4285714285713,56.695187165775394,531.4285714285713,56.695187165775394,597.8571428571428C56.695187165775394,664.2857142857142,49.7173179761415,664.2857142857142,49.7173179761415,730.7142857142857C49.7173179761415,797.1428571428571,35.76157959687371,797.1428571428571,35.76157959687371,863.5714285714286C35.76157959687371,930,56.695187165775394,930,56.695187165775394,996.4285714285714Z"/><circle cy="814.9457142857143" cx="56.695187165775394" r="1" fill="black"/><circle cy="905.2885714285715" cx="56.695187165775394" r="1" fill="black"/><circle cy="842.3142857142857" cx="56.695187165775394" r="1" fill="black"/><circle cy="830.3571428571429" cx="56.695187165775394" r="1" fill="black"/><circle cy="797.6742857142857" cx="56.695187165775394" r="1" fill="black"/><circle cy="840.1885714285714" cx="56.695187165775394" r="1" fill="black"/><circle cy="902.8971428571429" cx="56.695187165775394" r="1" fill="black"/><circle cy="841.7828571428571" cx="56.695187165775394" r="1" fill="black"/><circle cy="835.6714285714286" cx="56.695187165775394" r="1" fill="black"/><circle cy="908.2114285714285" cx="56.695187165775394" r="1" fill="black"/><circle cy="806.4428571428571" cx="56.695187165775394" r="1" fill="black"/><circle cy="823.1828571428571" cx="56.695187165775394" r="1" fill="black"/><circle cy="833.0142857142857" cx="56.695187165775394" r="1" fill="black"/><circle cy="813.6171428571429" cx="56.695187165775394" r="1" fill="black"/><circle cy="813.8828571428571" cx="56.695187165775394" r="1" fill="black"/><circle cy="804.5828571428572" cx="56.695187165775394" r="1" fill="black"/><circle cy="804.3171428571429" cx="56.695187165775394" r="1" fill="black"/><circle cy="824.5114285714286" cx="56.695187165775394" r="1" fill="black"/><circle cy="840.9857142857143" cx="56.695187165775394" r="1" fill="black"/><circle cy="802.9885714285714" cx="56.695187165775394" r="1" fill="black"/><circle cy="825.0428571428571" cx="56.695187165775394" r="1" fill="black"/><circle cy="830.3571428571429" cx="56.695187165775394" r="1" fill="black"/><circle cy="817.8685714285715" cx="56.695187165775394" r="1" fill="black"/><circle cy="814.4142857142857" cx="56.695187165775394" r="1" fill="black"/><circle cy="718.7571428571429" cx="56.695187165775394" r="1" fill="black"/><circle cy="790.5" cx="56.695187165775394" r="1" fill="black"/><circle cy="739.2171428571429" cx="56.695187165775394" r="1" fill="black"/><circle cy="779.8714285714285" cx="56.695187165775394" r="1" fill="black"/><circle cy="790.5" cx="56.695187165775394" r="1" fill="black"/><circle cy="763.1314285714285" cx="56.695187165775394" r="1" fill="black"/><circle cy="756.7542857142857" cx="56.695187165775394" r="1" fill="black"/><circle cy="787.8428571428572" cx="56.695187165775394" r="1" fill="black"/></g><g id="Classical Music" transform="translate(749.9679144385027 ,0)" style="fill: rgb(44, 160, 44);"><path style="stroke: none;" d="M56.695187165775394,996.4285714285714C56.695187165775394,930,75.8843274372686,930,75.8843274372686,863.5714285714286C75.8843274372686,797.1428571428571,59.31188811188811,797.1428571428571,59.31188811188811,730.7142857142857C59.31188811188811,664.2857142857142,56.695187165775394,664.2857142857142,56.695187165775394,597.8571428571428C56.695187165775394,531.4285714285713,56.695187165775394,531.4285714285713,56.695187165775394,465C56.695187165775394,398.57142857142856,56.695187165775394,398.57142857142856,56.695187165775394,332.1428571428571C56.695187165775394,265.7142857142857,56.695187165775394,265.7142857142857,56.695187165775394,199.2857142857143C56.695187165775394,132.85714285714286,56.695187165775394,132.85714285714286,56.695187165775394,66.4285714285714C56.695187165775394,0,56.695187165775394,0,56.695187165775394,-66.4285714285714L56.695187165775394,-66.4285714285714C56.695187165775394,0,56.695187165775394,0,56.695187165775394,66.4285714285714C56.695187165775394,132.85714285714286,56.695187165775394,132.85714285714286,56.695187165775394,199.2857142857143C56.695187165775394,265.7142857142857,56.695187165775394,265.7142857142857,56.695187165775394,332.1428571428571C56.695187165775394,398.57142857142856,56.695187165775394,398.57142857142856,56.695187165775394,465C56.695187165775394,531.4285714285713,56.695187165775394,531.4285714285713,56.695187165775394,597.8571428571428C56.695187165775394,664.2857142857142,54.078486219662686,664.2857142857142,54.078486219662686,730.7142857142857C54.078486219662686,797.1428571428571,37.506046894282186,797.1428571428571,37.506046894282186,863.5714285714286C37.506046894282186,930,56.695187165775394,930,56.695187165775394,996.4285714285714Z"/><circle cy="807.7714285714286" cx="56.695187165775394" r="1" fill="black"/><circle cy="824.2457142857144" cx="56.695187165775394" r="1" fill="black"/><circle cy="913.5257142857143" cx="56.695187165775394" r="1" fill="black"/><circle cy="887.4857142857143" cx="56.695187165775394" r="1" fill="black"/><circle cy="831.6857142857142" cx="56.695187165775394" r="1" fill="black"/><circle cy="807.24" cx="56.695187165775394" r="1" fill="black"/><circle cy="900.7714285714285" cx="56.695187165775394" r="1" fill="black"/><circle cy="918.84" cx="56.695187165775394" r="1" fill="black"/><circle cy="912.1971428571429" cx="56.695187165775394" r="1" fill="black"/><circle cy="880.3114285714286" cx="56.695187165775394" r="1" fill="black"/><circle cy="821.5885714285714" cx="56.695187165775394" r="1" fill="black"/><circle cy="899.4428571428572" cx="56.695187165775394" r="1" fill="black"/><circle cy="850.2857142857142" cx="56.695187165775394" r="1" fill="black"/><circle cy="837.5314285714286" cx="56.695187165775394" r="1" fill="black"/><circle cy="890.6742857142857" cx="56.695187165775394" r="1" fill="black"/><circle cy="836.2028571428572" cx="56.695187165775394" r="1" fill="black"/><circle cy="829.8257142857142" cx="56.695187165775394" r="1" fill="black"/><circle cy="846.8314285714285" cx="56.695187165775394" r="1" fill="black"/><circle cy="894.66" cx="56.695187165775394" r="1" fill="black"/><circle cy="842.8457142857143" cx="56.695187165775394" r="1" fill="black"/><circle cy="848.4257142857142" cx="56.695187165775394" r="1" fill="black"/><circle cy="816.54" cx="56.695187165775394" r="1" fill="black"/><circle cy="739.4828571428571" cx="56.695187165775394" r="1" fill="black"/><circle cy="696.9685714285714" cx="56.695187165775394" r="1" fill="black"/><circle cy="749.3142857142857" cx="56.695187165775394" r="1" fill="black"/></g><g id="Space Rock" transform="translate(873.3048128342245 ,0)" style="fill: rgb(204, 204, 204);"><path style="stroke: none;" d="M56.695187165775394,996.4285714285714C56.695187165775394,930,68.03422459893046,930,68.03422459893046,863.5714285714286C68.03422459893046,797.1428571428571,61.05635540929658,797.1428571428571,61.05635540929658,730.7142857142857C61.05635540929658,664.2857142857142,56.695187165775394,664.2857142857142,56.695187165775394,597.8571428571428C56.695187165775394,531.4285714285713,56.695187165775394,531.4285714285713,56.695187165775394,465C56.695187165775394,398.57142857142856,56.695187165775394,398.57142857142856,56.695187165775394,332.1428571428571C56.695187165775394,265.7142857142857,56.695187165775394,265.7142857142857,56.695187165775394,199.2857142857143C56.695187165775394,132.85714285714286,56.695187165775394,132.85714285714286,56.695187165775394,66.4285714285714C56.695187165775394,0,56.695187165775394,0,56.695187165775394,-66.4285714285714L56.695187165775394,-66.4285714285714C56.695187165775394,0,56.695187165775394,0,56.695187165775394,66.4285714285714C56.695187165775394,132.85714285714286,56.695187165775394,132.85714285714286,56.695187165775394,199.2857142857143C56.695187165775394,265.7142857142857,56.695187165775394,265.7142857142857,56.695187165775394,332.1428571428571C56.695187165775394,398.57142857142856,56.695187165775394,398.57142857142856,56.695187165775394,465C56.695187165775394,531.4285714285713,56.695187165775394,531.4285714285713,56.695187165775394,597.8571428571428C56.695187165775394,664.2857142857142,52.33401892225421,664.2857142857142,52.33401892225421,730.7142857142857C52.33401892225421,797.1428571428571,45.35614973262032,797.1428571428571,45.35614973262032,863.5714285714286C45.35614973262032,930,56.695187165775394,930,56.695187165775394,996.4285714285714Z"/><circle cy="830.8885714285715" cx="56.695187165775394" r="1" fill="black"/><circle cy="801.9257142857143" cx="56.695187165775394" r="1" fill="black"/><circle cy="826.3714285714286" cx="56.695187165775394" r="1" fill="black"/><circle cy="836.2028571428572" cx="56.695187165775394" r="1" fill="black"/><circle cy="874.7314285714286" cx="56.695187165775394" r="1" fill="black"/><circle cy="815.2114285714285" cx="56.695187165775394" r="1" fill="black"/><circle cy="835.6714285714286" cx="56.695187165775394" r="1" fill="black"/><circle cy="821.8542857142857" cx="56.695187165775394" r="1" fill="black"/><circle cy="807.7714285714286" cx="56.695187165775394" r="1" fill="black"/><circle cy="799.0028571428572" cx="56.695187165775394" r="1" fill="black"/><circle cy="825.84" cx="56.695187165775394" r="1" fill="black"/><circle cy="829.0285714285715" cx="56.695187165775394" r="1" fill="black"/><circle cy="813.6171428571429" cx="56.695187165775394" r="1" fill="black"/><circle cy="767.1171428571429" cx="56.695187165775394" r="1" fill="black"/><circle cy="796.6114285714285" cx="56.695187165775394" r="1" fill="black"/><circle cy="775.8857142857142" cx="56.695187165775394" r="1" fill="black"/><circle cy="776.4171428571428" cx="56.695187165775394" r="1" fill="black"/><circle cy="795.0171428571429" cx="56.695187165775394" r="1" fill="black"/></g><g id="Progressive Blues" transform="translate(996.6417112299465 ,0)" style="fill: rgb(127, 127, 127);"><path style="stroke: none;" d="M56.695187165775394,996.4285714285714C56.695187165775394,930,57.567420814479625,930,57.567420814479625,863.5714285714286C57.567420814479625,797.1428571428571,63.67305635540929,797.1428571428571,63.67305635540929,730.7142857142857C63.67305635540929,664.2857142857142,57.567420814479625,664.2857142857142,57.567420814479625,597.8571428571428C57.567420814479625,531.4285714285713,56.695187165775394,531.4285714285713,56.695187165775394,465C56.695187165775394,398.57142857142856,56.695187165775394,398.57142857142856,56.695187165775394,332.1428571428571C56.695187165775394,265.7142857142857,56.695187165775394,265.7142857142857,56.695187165775394,199.2857142857143C56.695187165775394,132.85714285714286,56.695187165775394,132.85714285714286,56.695187165775394,66.4285714285714C56.695187165775394,0,56.695187165775394,0,56.695187165775394,-66.4285714285714L56.695187165775394,-66.4285714285714C56.695187165775394,0,56.695187165775394,0,56.695187165775394,66.4285714285714C56.695187165775394,132.85714285714286,56.695187165775394,132.85714285714286,56.695187165775394,199.2857142857143C56.695187165775394,265.7142857142857,56.695187165775394,265.7142857142857,56.695187165775394,332.1428571428571C56.695187165775394,398.57142857142856,56.695187165775394,398.57142857142856,56.695187165775394,465C56.695187165775394,531.4285714285713,55.82295351707116,531.4285714285713,55.82295351707116,597.8571428571428C55.82295351707116,664.2857142857142,49.7173179761415,664.2857142857142,49.7173179761415,730.7142857142857C49.7173179761415,797.1428571428571,55.82295351707116,797.1428571428571,55.82295351707116,863.5714285714286C55.82295351707116,930,56.695187165775394,930,56.695187165775394,996.4285714285714Z"/><circle cy="820.5257142857143" cx="56.695187165775394" r="1" fill="black"/><circle cy="745.3285714285714" cx="56.695187165775394" r="1" fill="black"/><circle cy="692.1857142857143" cx="56.695187165775394" r="1" fill="black"/><circle cy="721.9457142857143" cx="56.695187165775394" r="1" fill="black"/><circle cy="732.84" cx="56.695187165775394" r="1" fill="black"/><circle cy="709.9885714285715" cx="56.695187165775394" r="1" fill="black"/><circle cy="766.0542857142857" cx="56.695187165775394" r="1" fill="black"/><circle cy="711.3171428571429" cx="56.695187165775394" r="1" fill="black"/><circle cy="785.1857142857143" cx="56.695187165775394" r="1" fill="black"/><circle cy="633.1971428571428" cx="56.695187165775394" r="1" fill="black"/></g><g id="Alternative Rock" transform="translate(1119.9786096256685 ,0)" style="fill: rgb(31, 119, 180);"><path style="stroke: none;" d="M56.695187165775394,996.4285714285714C56.695187165775394,930,64.54529000411353,930,64.54529000411353,863.5714285714286C64.54529000411353,797.1428571428571,61.92858905800081,797.1428571428571,61.92858905800081,730.7142857142857C61.92858905800081,664.2857142857142,56.695187165775394,664.2857142857142,56.695187165775394,597.8571428571428C56.695187165775394,531.4285714285713,56.695187165775394,531.4285714285713,56.695187165775394,465C56.695187165775394,398.57142857142856,56.695187165775394,398.57142857142856,56.695187165775394,332.1428571428571C56.695187165775394,265.7142857142857,56.695187165775394,265.7142857142857,56.695187165775394,199.2857142857143C56.695187165775394,132.85714285714286,56.695187165775394,132.85714285714286,56.695187165775394,66.4285714285714C56.695187165775394,0,56.695187165775394,0,56.695187165775394,-66.4285714285714L56.695187165775394,-66.4285714285714C56.695187165775394,0,56.695187165775394,0,56.695187165775394,66.4285714285714C56.695187165775394,132.85714285714286,56.695187165775394,132.85714285714286,56.695187165775394,199.2857142857143C56.695187165775394,265.7142857142857,56.695187165775394,265.7142857142857,56.695187165775394,332.1428571428571C56.695187165775394,398.57142857142856,56.695187165775394,398.57142857142856,56.695187165775394,465C56.695187165775394,531.4285714285713,56.695187165775394,531.4285714285713,56.695187165775394,597.8571428571428C56.695187165775394,664.2857142857142,51.46178527354997,664.2857142857142,51.46178527354997,730.7142857142857C51.46178527354997,797.1428571428571,48.84508432743726,797.1428571428571,48.84508432743726,863.5714285714286C48.84508432743726,930,56.695187165775394,930,56.695187165775394,996.4285714285714Z"/><circle cy="873.6685714285713" cx="56.695187165775394" r="1" fill="black"/><circle cy="828.2314285714285" cx="56.695187165775394" r="1" fill="black"/><circle cy="816.54" cx="56.695187165775394" r="1" fill="black"/><circle cy="811.7571428571429" cx="56.695187165775394" r="1" fill="black"/><circle cy="805.1142857142856" cx="56.695187165775394" r="1" fill="black"/><circle cy="824.2457142857144" cx="56.695187165775394" r="1" fill="black"/><circle cy="821.0571428571429" cx="56.695187165775394" r="1" fill="black"/><circle cy="800.5971428571429" cx="56.695187165775394" r="1" fill="black"/><circle cy="865.6971428571428" cx="56.695187165775394" r="1" fill="black"/><circle cy="790.5" cx="56.695187165775394" r="1" fill="black"/><circle cy="795.0171428571429" cx="56.695187165775394" r="1" fill="black"/><circle cy="773.2285714285714" cx="56.695187165775394" r="1" fill="black"/><circle cy="791.0314285714286" cx="56.695187165775394" r="1" fill="black"/><circle cy="793.1571428571428" cx="56.695187165775394" r="1" fill="black"/><circle cy="784.3885714285714" cx="56.695187165775394" r="1" fill="black"/></g><g id="Jazz Fusion" transform="translate(1243.3155080213903 ,0)" style="fill: rgb(227, 119, 194);"><path style="stroke: none;" d="M56.695187165775394,996.4285714285714C56.695187165775394,930,61.92858905800081,930,61.92858905800081,863.5714285714286C61.92858905800081,797.1428571428571,61.05635540929658,797.1428571428571,61.05635540929658,730.7142857142857C61.05635540929658,664.2857142857142,56.695187165775394,664.2857142857142,56.695187165775394,597.8571428571428C56.695187165775394,531.4285714285713,56.695187165775394,531.4285714285713,56.695187165775394,465C56.695187165775394,398.57142857142856,56.695187165775394,398.57142857142856,56.695187165775394,332.1428571428571C56.695187165775394,265.7142857142857,56.695187165775394,265.7142857142857,56.695187165775394,199.2857142857143C56.695187165775394,132.85714285714286,56.695187165775394,132.85714285714286,56.695187165775394,66.4285714285714C56.695187165775394,0,56.695187165775394,0,56.695187165775394,-66.4285714285714L56.695187165775394,-66.4285714285714C56.695187165775394,0,56.695187165775394,0,56.695187165775394,66.4285714285714C56.695187165775394,132.85714285714286,56.695187165775394,132.85714285714286,56.695187165775394,199.2857142857143C56.695187165775394,265.7142857142857,56.695187165775394,265.7142857142857,56.695187165775394,332.1428571428571C56.695187165775394,398.57142857142856,56.695187165775394,398.57142857142856,56.695187165775394,465C56.695187165775394,531.4285714285713,56.695187165775394,531.4285714285713,56.695187165775394,597.8571428571428C56.695187165775394,664.2857142857142,52.33401892225421,664.2857142857142,52.33401892225421,730.7142857142857C52.33401892225421,797.1428571428571,51.46178527354997,797.1428571428571,51.46178527354997,863.5714285714286C51.46178527354997,930,56.695187165775394,930,56.695187165775394,996.4285714285714Z"/><circle cy="816.54" cx="56.695187165775394" r="1" fill="black"/><circle cy="854.2714285714286" cx="56.695187165775394" r="1" fill="black"/><circle cy="816.2742857142857" cx="56.695187165775394" r="1" fill="black"/><circle cy="813.0857142857143" cx="56.695187165775394" r="1" fill="black"/><circle cy="876.3257142857143" cx="56.695187165775394" r="1" fill="black"/><circle cy="797.6742857142857" cx="56.695187165775394" r="1" fill="black"/><circle cy="797.1428571428572" cx="56.695187165775394" r="1" fill="black"/><circle cy="792.36" cx="56.695187165775394" r="1" fill="black"/><circle cy="713.9742857142857" cx="56.695187165775394" r="1" fill="black"/><circle cy="730.1828571428572" cx="56.695187165775394" r="1" fill="black"/><circle cy="720.0857142857143" cx="56.695187165775394" r="1" fill="black"/></g><g id="Rap Metal" transform="translate(1366.6524064171122 ,0)" style="fill: rgb(204, 204, 204);"><path style="stroke: none;" d="M56.695187165775394,996.4285714285714C56.695187165775394,930,62.800822706705056,930,62.800822706705056,863.5714285714286C62.800822706705056,797.1428571428571,60.18412176059234,797.1428571428571,60.18412176059234,730.7142857142857C60.18412176059234,664.2857142857142,56.695187165775394,664.2857142857142,56.695187165775394,597.8571428571428C56.695187165775394,531.4285714285713,56.695187165775394,531.4285714285713,56.695187165775394,465C56.695187165775394,398.57142857142856,56.695187165775394,398.57142857142856,56.695187165775394,332.1428571428571C56.695187165775394,265.7142857142857,56.695187165775394,265.7142857142857,56.695187165775394,199.2857142857143C56.695187165775394,132.85714285714286,56.695187165775394,132.85714285714286,56.695187165775394,66.4285714285714C56.695187165775394,0,56.695187165775394,0,56.695187165775394,-66.4285714285714L56.695187165775394,-66.4285714285714C56.695187165775394,0,56.695187165775394,0,56.695187165775394,66.4285714285714C56.695187165775394,132.85714285714286,56.695187165775394,132.85714285714286,56.695187165775394,199.2857142857143C56.695187165775394,265.7142857142857,56.695187165775394,265.7142857142857,56.695187165775394,332.1428571428571C56.695187165775394,398.57142857142856,56.695187165775394,398.57142857142856,56.695187165775394,465C56.695187165775394,531.4285714285713,56.695187165775394,531.4285714285713,56.695187165775394,597.8571428571428C56.695187165775394,664.2857142857142,53.20625257095845,664.2857142857142,53.20625257095845,730.7142857142857C53.20625257095845,797.1428571428571,50.58955162484574,797.1428571428571,50.58955162484574,863.5714285714286C50.58955162484574,930,56.695187165775394,930,56.695187165775394,996.4285714285714Z"/><circle cy="823.7142857142857" cx="56.695187165775394" r="1" fill="black"/><circle cy="814.4142857142857" cx="56.695187165775394" r="1" fill="black"/><circle cy="833.8114285714286" cx="56.695187165775394" r="1" fill="black"/><circle cy="825.5742857142857" cx="56.695187165775394" r="1" fill="black"/><circle cy="806.9742857142857" cx="56.695187165775394" r="1" fill="black"/><circle cy="828.2314285714285" cx="56.695187165775394" r="1" fill="black"/><circle cy="863.0400000000001" cx="56.695187165775394" r="1" fill="black"/><circle cy="774.5571428571428" cx="56.695187165775394" r="1" fill="black"/><circle cy="787.8428571428572" cx="56.695187165775394" r="1" fill="black"/><circle cy="771.3685714285714" cx="56.695187165775394" r="1" fill="black"/><circle cy="796.3457142857143" cx="56.695187165775394" r="1" fill="black"/></g><g id="ElectroJazz" transform="translate(1489.9893048128342 ,0)" style="fill: rgb(214, 39, 40);"><path style="stroke: none;" d="M56.695187165775394,996.4285714285714C56.695187165775394,930,65.41752365281776,930,65.41752365281776,863.5714285714286C65.41752365281776,797.1428571428571,56.695187165775394,797.1428571428571,56.695187165775394,730.7142857142857C56.695187165775394,664.2857142857142,56.695187165775394,664.2857142857142,56.695187165775394,597.8571428571428C56.695187165775394,531.4285714285713,56.695187165775394,531.4285714285713,56.695187165775394,465C56.695187165775394,398.57142857142856,56.695187165775394,398.57142857142856,56.695187165775394,332.1428571428571C56.695187165775394,265.7142857142857,56.695187165775394,265.7142857142857,56.695187165775394,199.2857142857143C56.695187165775394,132.85714285714286,56.695187165775394,132.85714285714286,56.695187165775394,66.4285714285714C56.695187165775394,0,56.695187165775394,0,56.695187165775394,-66.4285714285714L56.695187165775394,-66.4285714285714C56.695187165775394,0,56.695187165775394,0,56.695187165775394,66.4285714285714C56.695187165775394,132.85714285714286,56.695187165775394,132.85714285714286,56.695187165775394,199.2857142857143C56.695187165775394,265.7142857142857,56.695187165775394,265.7142857142857,56.695187165775394,332.1428571428571C56.695187165775394,398.57142857142856,56.695187165775394,398.57142857142856,56.695187165775394,465C56.695187165775394,531.4285714285713,56.695187165775394,531.4285714285713,56.695187165775394,597.8571428571428C56.695187165775394,664.2857142857142,56.695187165775394,664.2857142857142,56.695187165775394,730.7142857142857C56.695187165775394,797.1428571428571,47.972850678733025,797.1428571428571,47.972850678733025,863.5714285714286C47.972850678733025,930,56.695187165775394,930,56.695187165775394,996.4285714285714Z"/><circle cy="809.8971428571429" cx="56.695187165775394" r="1" fill="black"/><circle cy="828.4971428571429" cx="56.695187165775394" r="1" fill="black"/><circle cy="829.0285714285715" cx="56.695187165775394" r="1" fill="black"/><circle cy="816.2742857142857" cx="56.695187165775394" r="1" fill="black"/><circle cy="831.6857142857142" cx="56.695187165775394" r="1" fill="black"/><circle cy="812.2885714285715" cx="56.695187165775394" r="1" fill="black"/><circle cy="833.0142857142857" cx="56.695187165775394" r="1" fill="black"/><circle cy="826.9028571428571" cx="56.695187165775394" r="1" fill="black"/><circle cy="830.8885714285715" cx="56.695187165775394" r="1" fill="black"/><circle cy="816.54" cx="56.695187165775394" r="1" fill="black"/></g><g id="Rock" transform="translate(1613.326203208556 ,0)" style="fill: rgb(204, 204, 204);"><path style="stroke: none;" d="M56.695187165775394,996.4285714285714C56.695187165775394,930,61.05635540929658,930,61.05635540929658,863.5714285714286C61.05635540929658,797.1428571428571,58.439654463183864,797.1428571428571,58.439654463183864,730.7142857142857C58.439654463183864,664.2857142857142,56.695187165775394,664.2857142857142,56.695187165775394,597.8571428571428C56.695187165775394,531.4285714285713,56.695187165775394,531.4285714285713,56.695187165775394,465C56.695187165775394,398.57142857142856,56.695187165775394,398.57142857142856,56.695187165775394,332.1428571428571C56.695187165775394,265.7142857142857,56.695187165775394,265.7142857142857,56.695187165775394,199.2857142857143C56.695187165775394,132.85714285714286,56.695187165775394,132.85714285714286,56.695187165775394,66.4285714285714C56.695187165775394,0,56.695187165775394,0,56.695187165775394,-66.4285714285714L56.695187165775394,-66.4285714285714C56.695187165775394,0,56.695187165775394,0,56.695187165775394,66.4285714285714C56.695187165775394,132.85714285714286,56.695187165775394,132.85714285714286,56.695187165775394,199.2857142857143C56.695187165775394,265.7142857142857,56.695187165775394,265.7142857142857,56.695187165775394,332.1428571428571C56.695187165775394,398.57142857142856,56.695187165775394,398.57142857142856,56.695187165775394,465C56.695187165775394,531.4285714285713,56.695187165775394,531.4285714285713,56.695187165775394,597.8571428571428C56.695187165775394,664.2857142857142,54.95071986836692,664.2857142857142,54.95071986836692,730.7142857142857C54.95071986836692,797.1428571428571,52.33401892225421,797.1428571428571,52.33401892225421,863.5714285714286C52.33401892225421,930,56.695187165775394,930,56.695187165775394,996.4285714285714Z"/><circle cy="817.8685714285715" cx="56.695187165775394" r="1" fill="black"/><circle cy="818.4" cx="56.695187165775394" r="1" fill="black"/><circle cy="809.6314285714285" cx="56.695187165775394" r="1" fill="black"/><circle cy="840.9857142857143" cx="56.695187165775394" r="1" fill="black"/><circle cy="838.3285714285714" cx="56.695187165775394" r="1" fill="black"/><circle cy="788.64" cx="56.695187165775394" r="1" fill="black"/><circle cy="765.2571428571429" cx="56.695187165775394" r="1" fill="black"/></g><g id="Indie Folk" transform="translate(1736.663101604278 ,0)" style="fill: rgb(148, 103, 189);"><path style="stroke: none;" d="M56.695187165775394,996.4285714285714C56.695187165775394,930,57.567420814479625,930,57.567420814479625,863.5714285714286C57.567420814479625,797.1428571428571,56.695187165775394,797.1428571428571,56.695187165775394,730.7142857142857C56.695187165775394,664.2857142857142,56.695187165775394,664.2857142857142,56.695187165775394,597.8571428571428C56.695187165775394,531.4285714285713,56.695187165775394,531.4285714285713,56.695187165775394,465C56.695187165775394,398.57142857142856,56.695187165775394,398.57142857142856,56.695187165775394,332.1428571428571C56.695187165775394,265.7142857142857,56.695187165775394,265.7142857142857,56.695187165775394,199.2857142857143C56.695187165775394,132.85714285714286,56.695187165775394,132.85714285714286,56.695187165775394,66.4285714285714C56.695187165775394,0,56.695187165775394,0,56.695187165775394,-66.4285714285714L56.695187165775394,-66.4285714285714C56.695187165775394,0,56.695187165775394,0,56.695187165775394,66.4285714285714C56.695187165775394,132.85714285714286,56.695187165775394,132.85714285714286,56.695187165775394,199.2857142857143C56.695187165775394,265.7142857142857,56.695187165775394,265.7142857142857,56.695187165775394,332.1428571428571C56.695187165775394,398.57142857142856,56.695187165775394,398.57142857142856,56.695187165775394,465C56.695187165775394,531.4285714285713,56.695187165775394,531.4285714285713,56.695187165775394,597.8571428571428C56.695187165775394,664.2857142857142,56.695187165775394,664.2857142857142,56.695187165775394,730.7142857142857C56.695187165775394,797.1428571428571,55.82295351707116,797.1428571428571,55.82295351707116,863.5714285714286C55.82295351707116,930,56.695187165775394,930,56.695187165775394,996.4285714285714Z"/><circle cy="815.7428571428571" cx="56.695187165775394" r="1" fill="black"/></g></g></g><g id="legend" transform="translate(1920,50)"><g transform="translate(5,0)"><g class="legendColor" transform="translate(0,0)"><g class="legendCells" transform="translate(0,16)"><g class="cell" transform="translate(0, 0)"><rect class="swatch" height="15" width="15" style="fill: rgb(31, 119, 180);"/><text class="label" transform="translate( 20, 12.5)" font-family="&quot;Arial&quot;, sans-serif" font-size="10px"><tspan x="0" dy="0em">Alternative Rock</tspan></text></g><g class="cell" transform="translate(0, 21)"><rect class="swatch" height="15" width="15" style="fill: rgb(255, 127, 14);"/><text class="label" transform="translate( 20, 12.5)" font-family="&quot;Arial&quot;, sans-serif" font-size="10px"><tspan x="0" dy="0em">Art Rock</tspan></text></g><g class="cell" transform="translate(0, 42)"><rect class="swatch" height="15" width="15" style="fill: rgb(44, 160, 44);"/><text class="label" transform="translate( 20, 12.5)" font-family="&quot;Arial&quot;, sans-serif" font-size="10px"><tspan x="0" dy="0em">Classical Music</tspan></text></g><g class="cell" transform="translate(0, 63)"><rect class="swatch" height="15" width="15" style="fill: rgb(214, 39, 40);"/><text class="label" transform="translate( 20, 12.5)" font-family="&quot;Arial&quot;, sans-serif" font-size="10px"><tspan x="0" dy="0em">ElectroJazz</tspan></text></g><g class="cell" transform="translate(0, 84)"><rect class="swatch" height="15" width="15" style="fill: rgb(148, 103, 189);"/><text class="label" transform="translate( 20, 12.5)" font-family="&quot;Arial&quot;, sans-serif" font-size="10px"><tspan x="0" dy="0em">Indie Folk</tspan></text></g><g class="cell" transform="translate(0, 105)"><rect class="swatch" height="15" width="15" style="fill: rgb(140, 86, 75);"/><text class="label" transform="translate( 20, 12.5)" font-family="&quot;Arial&quot;, sans-serif" font-size="10px"><tspan x="0" dy="0em">Jazz</tspan></text></g><g class="cell" transform="translate(0, 126)"><rect class="swatch" height="15" width="15" style="fill: rgb(227, 119, 194);"/><text class="label" transform="translate( 20, 12.5)" font-family="&quot;Arial&quot;, sans-serif" font-size="10px"><tspan x="0" dy="0em">Jazz Fusion</tspan></text></g><g class="cell" transform="translate(0, 147)"><rect class="swatch" height="15" width="15" style="fill: rgb(127, 127, 127);"/><text class="label" transform="translate( 20, 12.5)" font-family="&quot;Arial&quot;, sans-serif" font-size="10px"><tspan x="0" dy="0em">Progressive Blues</tspan></text></g><g class="cell" transform="translate(0, 168)"><rect class="swatch" height="15" width="15" style="fill: rgb(188, 189, 34);"/><text class="label" transform="translate( 20, 12.5)" font-family="&quot;Arial&quot;, sans-serif" font-size="10px"><tspan x="0" dy="0em">Progressive Metal</tspan></text></g><g class="cell" transform="translate(0, 189)"><rect class="swatch" height="15" width="15" style="fill: rgb(23, 190, 207);"/><text class="label" transform="translate( 20, 12.5)" font-family="&quot;Arial&quot;, sans-serif" font-size="10px"><tspan x="0" dy="0em">Progressive Rock</tspan></text></g><g class="cell" transform="translate(0, 210)"><rect class="swatch" height="15" width="15" style="fill: rgb(204, 204, 204);"/><text class="label" transform="translate( 20, 12.5)" font-family="&quot;Arial&quot;, sans-serif" font-size="10px"><tspan x="0" dy="0em">Psychedelic Rock</tspan></text></g><g class="cell" transform="translate(0, 231)"><rect class="swatch" height="15" width="15" style="fill: rgb(204, 204, 204);"/><text class="label" transform="translate( 20, 12.5)" font-family="&quot;Arial&quot;, sans-serif" font-size="10px"><tspan x="0" dy="0em">Rap Metal</tspan></text></g><g class="cell" transform="translate(0, 252)"><rect class="swatch" height="15" width="15" style="fill: rgb(204, 204, 204);"/><text class="label" transform="translate( 20, 12.5)" font-family="&quot;Arial&quot;, sans-serif" font-size="10px"><tspan x="0" dy="0em">Rock</tspan></text></g><g class="cell" transform="translate(0, 273)"><rect class="swatch" height="15" width="15" style="fill: rgb(204, 204, 204);"/><text class="label" transform="translate( 20, 12.5)" font-family="&quot;Arial&quot;, sans-serif" font-size="10px"><tspan x="0" dy="0em">Space Rock</tspan></text></g><g class="cell" transform="translate(0, 294)"><rect class="swatch" height="15" width="15" style="fill: rgb(204, 204, 204);"/><text class="label" transform="translate( 20, 12.5)" font-family="&quot;Arial&quot;, sans-serif" font-size="10px"><tspan x="0" dy="0em">Symphonic Rock</tspan></text></g></g><text class="legendTitle" font-family="&quot;Arial&quot;, sans-serif" font-size="12px" font-weight="bold"><tspan x="0" dy="0em">Genre</tspan></text></g></g></g></svg>